<?xml version="1.0" encoding="UTF-8"?>
<svg id="Layer_1" xmlns="http://www.w3.org/2000/svg" version="1.1" viewBox="0 0 37 36">
 <!-- Generator: Adobe Illustrator 30.2.1, SVG Export Plug-In . SVG Version: 2.1.1 Build 1) -->
 <line fill="none" stroke-miterlimit="10" stroke-width=".8px" stroke="#000" x1="28.4" y1="22.2" x2="31.3" y2="22.2"/>
 <polyline fill="none" stroke-miterlimit="10" stroke-width=".8px" stroke="#000" points="31.3 22.2 36.4 22.2 36.6 22 31.2 1.2 27.5 16.8"/>
 <line fill="none" stroke-miterlimit="10" stroke-width=".8px" stroke="#000" x1="31.3" y1="22.2" x2="31.3" y2="25.3"/>
 <line fill="none" stroke-miterlimit="10" stroke-width=".8px" stroke="#000" x1="8.4" y1="26.2" x2="8.4" y2="18.1"/>
 <path fill="none" stroke-miterlimit="10" stroke-width=".8px" stroke="#000" d="M8.4,18.1c-2.2,0-4.1-.8-5.6-2.4-1.6-1.6-2.4-3.5-2.4-5.7s.8-4.1,2.3-5.6c1.6-1.6,3.5-2.3,5.6-2.3s4.1.8,5.7,2.3c1,1,1.6,2,2,3.2"/>
 <path fill="none" stroke-miterlimit="10" stroke-width=".8px" stroke="#000" d="M8.4,18.1c2,0,3.7-.6,5.1-1.8"/>
 <line fill="none" stroke-miterlimit="10" stroke-width=".8px" stroke="#000" x1="20.2" y1="27.5" x2="20.2" y2="35.2"/>
 <line fill="none" stroke-miterlimit="10" stroke-width=".8px" stroke="#000" x1="8.4" y1="27.5" x2="8.4" y2="35.2"/>
 <line fill="none" stroke-miterlimit="10" stroke-width=".8px" stroke="#000" x1="31.3" y1="27.5" x2="31.3" y2="35.2"/>
 <line stroke="#231f20" fill="none" stroke-miterlimit="10" stroke-width=".8px" x1="17.7" y1="18.3" x2="18.7" y2="18.3"/>
 <line stroke="#231f20" fill="none" stroke-miterlimit="10" stroke-width=".8px" x1="19.7" y1="18.3" x2="20.8" y2="18.3"/>
 <line stroke="#231f20" fill="none" stroke-miterlimit="10" stroke-width=".8px" x1="21.9" y1="18.3" x2="22.9" y2="18.3"/>
 <path stroke-miterlimit="10" stroke-width=".8px" stroke="#000" fill="#77c043" d="M26.1,19.8h4.1l-6.4-7h3.7L20.3.4l-7.4,12.4h3.8l-6.4,7h4.1c-1,1-6.5,6.9-7.2,7.7h26s-5.3-5.8-7.1-7.7Z"/>
</svg>