<svg width="37" height="24" viewBox="0 0 37 24" fill="none" xmlns="http://www.w3.org/2000/svg">
<path d="M26.475 9.24499C24.865 9.14499 24.295 10.525 22.845 10.875C20.785 11.535 19.695 9.17499 17.775 9.24499C15.565 9.24499 15.345 11.235 13.045 10.935C11.365 10.765 11.145 9.445 9.465 9.265C7.015 8.965 5.96501 11.945 3.44501 10.685C2.59501 10.085 1.465 9.44499 0.385002 9.24499V21.555C2.555 21.555 2.555 23.255 4.735 23.255C6.915 23.255 6.90501 21.555 9.08501 21.555C11.265 21.555 11.255 23.255 13.435 23.255C15.615 23.255 15.605 21.555 17.785 21.555C19.965 21.555 19.955 23.255 22.135 23.255C24.315 23.255 24.305 21.555 26.485 21.555C28.665 21.555 28.665 23.255 30.835 23.255C33.005 23.255 33.605 21.555 35.775 21.555V9.24499C33.595 9.24499 33.005 10.945 30.835 10.945C28.665 10.945 28.665 9.24499 26.485 9.24499H26.475Z" fill="#17C0FF"/>
<path d="M31.415 2.185C29.235 2.185 29.235 0.485001 27.065 0.485001C24.895 0.485001 24.895 2.185 22.715 2.185C20.535 2.185 20.545 0.485001 18.365 0.485001C16.185 0.485001 16.195 2.185 14.015 2.185C11.835 2.185 11.845 0.485001 9.66501 0.485001C7.48501 0.485001 7.495 2.185 5.315 2.185C3.135 2.185 2.545 0.485001 0.375 0.485001V9.245L1.90501 9.715C2.88501 10.175 3.44501 11.035 4.72501 10.945C6.89501 10.945 6.895 9.245 9.075 9.245C10.995 9.165 11.505 11.035 13.425 10.945C15.595 10.945 15.595 9.24499 17.775 9.24499C19.525 9.10499 20.365 11.075 22.125 10.945C23.945 11.055 24.655 9.12499 26.475 9.24499C28.655 9.24499 28.655 10.945 30.825 10.945C32.995 10.945 33.595 9.245 35.765 9.245V0.485001C33.585 0.485001 33.585 2.185 31.415 2.185Z" fill="#17C0FF"/>
<path d="M27.065 0.375C27.545 0.375 27.915 0.455007 28.235 0.585007C27.925 0.455007 27.545 0.375 27.065 0.375ZM27.065 0.375C24.885 0.375 24.885 2.075 22.715 2.075M27.065 0.375C24.885 0.375 24.895 2.075 22.715 2.075M22.715 2.075C20.545 2.075 20.535 0.375 18.365 0.375M22.715 2.075C20.535 2.075 20.535 0.375 18.365 0.375M18.365 0.375C16.195 0.375 16.195 2.075 14.015 2.075M18.365 0.375C16.195 0.375 16.185 2.075 14.015 2.075M14.015 2.075C11.835 2.075 11.845 0.375 9.66501 0.375M14.015 2.075C11.845 2.075 11.845 0.375 9.66501 0.375M9.66501 0.375L9.675 0.375003M0.375 0.494995C2.545 0.494995 3.145 2.19499 5.315 2.19499C7.485 2.19499 7.48501 0.494995 9.66501 0.494995C11.845 0.494995 11.835 2.19499 14.015 2.19499C16.195 2.19499 16.185 0.494995 18.365 0.494995C20.545 0.494995 20.535 2.19499 22.715 2.19499C24.895 2.19499 24.885 0.494995 27.065 0.494995C29.245 0.494995 29.245 2.19499 31.415 2.19499C33.585 2.19499 33.595 0.494995 35.765 0.494995M19.125 9.545C19.435 9.705 19.695 9.905 19.945 10.105M26.475 9.24499C24.865 9.14499 24.295 10.525 22.845 10.875C20.785 11.535 19.695 9.17499 17.775 9.24499M26.475 9.24499H26.485C28.665 9.24499 28.665 10.945 30.835 10.945C33.005 10.945 33.595 9.24499 35.775 9.24499V21.555C33.605 21.555 33.005 23.255 30.835 23.255C28.665 23.255 28.665 21.555 26.485 21.555C24.305 21.555 24.315 23.255 22.135 23.255C19.955 23.255 19.965 21.555 17.785 21.555C15.605 21.555 15.615 23.255 13.435 23.255C11.255 23.255 11.265 21.555 9.08501 21.555C6.90501 21.555 6.915 23.255 4.735 23.255C2.555 23.255 2.555 21.555 0.385002 21.555V9.24499C1.465 9.44499 2.59501 10.085 3.44501 10.685C5.96501 11.945 7.015 8.965 9.465 9.265C11.145 9.445 11.365 10.765 13.045 10.935C15.345 11.235 15.565 9.24499 17.775 9.24499M26.475 9.24499C24.655 9.12499 23.945 11.055 22.125 10.945C20.365 11.075 19.525 9.10499 17.775 9.24499M26.475 9.24499C28.655 9.24499 28.655 10.945 30.825 10.945C32.995 10.945 33.595 9.245 35.765 9.245V0.485001C33.585 0.485001 33.585 2.185 31.415 2.185C29.235 2.185 29.235 0.485001 27.065 0.485001C24.895 0.485001 24.895 2.185 22.715 2.185C20.535 2.185 20.545 0.485001 18.365 0.485001C16.185 0.485001 16.195 2.185 14.015 2.185C11.835 2.185 11.845 0.485001 9.66501 0.485001C7.48501 0.485001 7.495 2.185 5.315 2.185C3.135 2.185 2.545 0.485001 0.375 0.485001V9.245L1.90501 9.715C2.88501 10.175 3.44501 11.035 4.72501 10.945C6.89501 10.945 6.895 9.245 9.075 9.245C10.995 9.165 11.505 11.035 13.425 10.945C15.595 10.945 15.595 9.24499 17.775 9.24499M2.135 9.785L1.915 9.715C2.145 9.825 2.32501 9.925 2.35501 9.935C2.28501 9.885 2.215 9.835 2.145 9.785H2.135Z" stroke="black" stroke-width="0.75" stroke-linecap="round" stroke-linejoin="round"/>
</svg>
