<svg width="37" height="37" viewBox="0 0 37 37" fill="none" xmlns="http://www.w3.org/2000/svg">
<path d="M6.23793 26.7155L5.13793 29.4255C4.96793 29.8555 4.46793 30.0655 4.03793 29.8955L3.67793 29.7555C3.24793 29.5755 3.03793 29.0855 3.20793 28.6555L4.30793 25.9355C4.48793 25.5055 4.97793 25.2955 5.40793 25.4655L5.76793 25.6055C6.19793 25.7855 6.40793 26.2755 6.23793 26.7155ZM13.2479 29.5355L12.1479 32.2755C11.9679 32.7055 11.4779 32.9255 11.0479 32.7455L10.7079 32.5955C10.2779 32.4155 10.0679 31.9255 10.2379 31.4955L11.3079 28.7755C11.4979 28.3455 11.9979 28.1555 12.4279 28.3355L12.7779 28.4855C13.1879 28.6555 13.3879 29.1155 13.2479 29.5355ZM18.6479 27.1355L17.5479 29.8455C17.3679 30.2755 16.8779 30.4855 16.4479 30.3155L16.0879 30.1755C15.6579 29.9955 15.4479 29.5055 15.6179 29.0755L16.7079 26.3555C16.8879 25.9255 17.3779 25.7155 17.8079 25.8855L18.1679 26.0255C18.6079 26.1955 18.8179 26.6955 18.6479 27.1355ZM25.9779 27.7355L24.8779 30.4555C24.6979 30.8855 24.2079 31.0955 23.7679 30.9255L23.4179 30.7855C22.9879 30.6055 22.7779 30.1155 22.9479 29.6855L24.0479 26.9655C24.2279 26.5355 24.7179 26.3255 25.1479 26.4955L25.5079 26.6355C25.9379 26.8155 26.1479 27.3055 25.9779 27.7355ZM33.3179 26.8855L32.2179 29.6055C32.0379 30.0355 31.5479 30.2455 31.1179 30.0755L30.7679 29.9355C30.3379 29.7555 30.1179 29.2655 30.2979 28.8355L31.3979 26.1155C31.5779 25.6855 32.0679 25.4755 32.4979 25.6455L32.8579 25.7855C33.2879 25.9655 33.4979 26.4555 33.3179 26.8855ZM29.4279 32.6955L28.3279 35.4155C28.1479 35.8455 27.6579 36.0555 27.2279 35.8855L26.8679 35.7355C26.4379 35.5555 26.2279 35.0655 26.3979 34.6355L27.5079 31.9455C27.6879 31.5155 28.1779 31.3055 28.6079 31.4755L28.9679 31.6255C29.3779 31.8055 29.5879 32.2855 29.4279 32.7055V32.6955ZM20.7679 32.5955L19.6679 35.3055C19.4979 35.7355 19.0079 35.9455 18.5779 35.7755C18.5779 35.7755 18.5779 35.7755 18.5679 35.7755L18.2079 35.6355C17.7779 35.4555 17.5679 34.9655 17.7379 34.5355L18.8379 31.8155C19.0179 31.3755 19.5079 31.1655 19.9479 31.3355L20.2979 31.4755C20.7379 31.6555 20.9479 32.1455 20.7679 32.5855C20.7679 32.5855 20.7679 32.5855 20.7679 32.5955ZM7.58793 32.6955L6.51793 35.4155C6.33793 35.8455 5.84793 36.0555 5.41793 35.8855L5.05793 35.7355C4.62793 35.5555 4.41793 35.0655 4.58793 34.6355L5.65793 31.9455C5.83793 31.5155 6.32793 31.3055 6.76793 31.4755L7.11793 31.6255C7.53793 31.7955 7.74793 32.2755 7.58793 32.7055V32.6955Z" fill="#17CCFF"/>
<path d="M36.4379 16.0555C36.4379 20.3855 32.9279 23.8955 28.5979 23.8955H8.43793C4.10793 24.0155 0.49793 20.6055 0.37793 16.2755C0.33793 14.8055 0.707932 13.3455 1.45793 12.0755C2.90793 9.61551 5.57793 8.14552 8.42793 8.21552C8.82793 8.21552 9.22793 8.24551 9.62793 8.29551C10.1979 3.38551 14.6479 -0.134475 19.5579 0.435525C23.6879 0.915525 26.9379 4.17551 27.4179 8.29551C27.8179 8.23551 28.2179 8.21552 28.6179 8.21552C32.9279 8.24552 36.4179 11.7355 36.4279 16.0555H36.4379Z" stroke="black" stroke-width="0.75" stroke-linecap="round" stroke-linejoin="round"/>
<path d="M6.23793 26.7155L5.13793 29.4255C4.96793 29.8555 4.46793 30.0655 4.03793 29.8955L3.67793 29.7555C3.24793 29.5755 3.03793 29.0855 3.20793 28.6555L4.30793 25.9355C4.48793 25.5055 4.97793 25.2955 5.40793 25.4655L5.76793 25.6055C6.19793 25.7855 6.40793 26.2755 6.23793 26.7155ZM13.2479 29.5355L12.1479 32.2755C11.9679 32.7055 11.4779 32.9255 11.0479 32.7455L10.7079 32.5955C10.2779 32.4155 10.0679 31.9255 10.2379 31.4955L11.3079 28.7755C11.4979 28.3455 11.9979 28.1555 12.4279 28.3355L12.7779 28.4855C13.1879 28.6555 13.3879 29.1155 13.2479 29.5355ZM18.6479 27.1355L17.5479 29.8455C17.3679 30.2755 16.8779 30.4855 16.4479 30.3155L16.0879 30.1755C15.6579 29.9955 15.4479 29.5055 15.6179 29.0755L16.7079 26.3555C16.8879 25.9255 17.3779 25.7155 17.8079 25.8855L18.1679 26.0255C18.6079 26.1955 18.8179 26.6955 18.6479 27.1355ZM25.9779 27.7355L24.8779 30.4555C24.6979 30.8855 24.2079 31.0955 23.7679 30.9255L23.4179 30.7855C22.9879 30.6055 22.7779 30.1155 22.9479 29.6855L24.0479 26.9655C24.2279 26.5355 24.7179 26.3255 25.1479 26.4955L25.5079 26.6355C25.9379 26.8155 26.1479 27.3055 25.9779 27.7355ZM33.3179 26.8855L32.2179 29.6055C32.0379 30.0355 31.5479 30.2455 31.1179 30.0755L30.7679 29.9355C30.3379 29.7555 30.1179 29.2655 30.2979 28.8355L31.3979 26.1155C31.5779 25.6855 32.0679 25.4755 32.4979 25.6455L32.8579 25.7855C33.2879 25.9655 33.4979 26.4555 33.3179 26.8855ZM29.4279 32.6955L28.3279 35.4155C28.1479 35.8455 27.6579 36.0555 27.2279 35.8855L26.8679 35.7355C26.4379 35.5555 26.2279 35.0655 26.3979 34.6355L27.5079 31.9455C27.6879 31.5155 28.1779 31.3055 28.6079 31.4755L28.9679 31.6255C29.3779 31.8055 29.5879 32.2855 29.4279 32.7055V32.6955ZM20.7679 32.5955L19.6679 35.3055C19.4979 35.7355 19.0079 35.9455 18.5779 35.7755C18.5779 35.7755 18.5779 35.7755 18.5679 35.7755L18.2079 35.6355C17.7779 35.4555 17.5679 34.9655 17.7379 34.5355L18.8379 31.8155C19.0179 31.3755 19.5079 31.1655 19.9479 31.3355L20.2979 31.4755C20.7379 31.6555 20.9479 32.1455 20.7679 32.5855C20.7679 32.5855 20.7679 32.5855 20.7679 32.5955ZM7.58793 32.6955L6.51793 35.4155C6.33793 35.8455 5.84793 36.0555 5.41793 35.8855L5.05793 35.7355C4.62793 35.5555 4.41793 35.0655 4.58793 34.6355L5.65793 31.9455C5.83793 31.5155 6.32793 31.3055 6.76793 31.4755L7.11793 31.6255C7.53793 31.7955 7.74793 32.2755 7.58793 32.7055V32.6955Z" stroke="black" stroke-width="0.75" stroke-linecap="round" stroke-linejoin="round"/>
</svg>
