<?xml version="1.0" encoding="UTF-8"?>
<svg id="Layer_1" xmlns="http://www.w3.org/2000/svg" version="1.1" viewBox="0 0 36 36">
 <!-- Generator: Adobe Illustrator 30.2.1, SVG Export Plug-In . SVG Version: 2.1.1 Build 1) -->
 <path fill="none" stroke="#000" stroke-linecap="round" stroke-linejoin="round" stroke-width=".8px" d="M32.3,5.2l1.2-1.2c.9-1,.9-2.6,0-3.6l-1.2,1.2c-.9,1-.9,2.6,0,3.6Z"/>
 <path fill="none" stroke="#000" stroke-linecap="round" stroke-linejoin="round" stroke-width=".8px" d="M32.3,5.2l-1.2,1.2c-1,.9-2.6.9-3.6,0l1.2-1.2c1-.9,2.6-.9,3.6,0Z"/>
 <path fill="none" stroke="#000" stroke-linecap="round" stroke-linejoin="round" stroke-width=".8px" d="M32.3,5.2c1.6,4.7,2.2,7.9,1.5,11.6"/>
 <path stroke="#000" stroke-linecap="round" stroke-linejoin="round" stroke-width=".8px" fill="#e4ff17" d="M28.7,10h-3.6c-1,0-1.8.8-1.8,1.8v1.2c0,.4-3.6,3.6-3.6,3.6l-.6-3.6c-.3-1.4-1.6-2.4-3-2.4H.4c0,2,1.6,3.6,3.6,3.6,0,2,1.6,3.6,3.6,3.6,0,2,1.6,3.6,3.6,3.6h1.2l-2.4,1.8H.4v12l9.6-9.6c1.2,2.5,4.8,3,6.6,3,5,0,10.2-5.2,10.2-10.2v-.6h1.2c1.3,0,2.4-1.1,2.4-2.4v-3.6c0-1-.8-1.8-1.8-1.8h0Z"/>
 <polygon fill="none" stroke="#000" stroke-linecap="round" stroke-linejoin="round" stroke-width=".8px" points="30.5 15.4 30.5 11.8 35.3 13.6 30.5 15.4"/>
</svg>