<svg width="36" height="34" viewBox="0 0 36 34" fill="none" xmlns="http://www.w3.org/2000/svg">
<path d="M17.825 7.595C17.165 7.595 16.625 8.13498 16.625 8.79498L17.295 10.125C17.355 10.245 17.445 10.345 17.565 10.395C17.865 10.535 18.2151 10.415 18.3651 10.125L19.035 8.79498C19.035 8.13498 18.495 7.595 17.835 7.595H17.825Z" fill="#E4FF17"/>
<path d="M19.175 20.685C18.845 20.765 18.505 20.805 18.165 20.825C17.995 20.825 17.825 20.835 17.655 20.825C17.485 20.815 17.315 20.805 17.145 20.795C16.925 20.775 16.705 20.735 16.485 20.685C16.295 21.275 16.095 21.905 15.895 22.535C15.825 22.745 15.765 22.955 15.695 23.165C15.495 23.795 15.305 24.425 15.135 25.025C14.615 26.825 14.225 28.365 14.225 28.965C14.255 29.405 14.395 29.835 14.645 30.195C15.585 31.805 17.835 33.475 17.835 33.475C17.835 33.475 20.085 31.805 21.035 30.195C21.285 29.825 21.425 29.405 21.455 28.965C21.455 27.895 20.225 23.855 19.195 20.695L19.175 20.685Z" fill="#E4FF17"/>
<path d="M15.125 25.015C15.295 24.415 15.485 23.785 15.685 23.155C15.755 22.945 15.815 22.735 15.885 22.525C16.085 21.895 16.285 21.275 16.475 20.675C16.325 20.645 16.175 20.595 16.025 20.555C15.725 20.465 15.445 20.345 15.165 20.205C15.025 20.135 14.895 20.055 14.755 19.975C12.915 22.215 11.065 24.605 10.725 25.425C10.035 27.125 12.395 30.965 12.395 30.965C13.155 30.755 13.905 30.495 14.625 30.185C14.375 29.815 14.235 29.395 14.205 28.955C14.205 28.355 14.595 26.815 15.115 25.015H15.125Z" fill="#E4FF17"/>
<path d="M20.105 20.375C20.105 20.375 20.015 20.415 19.975 20.425C19.875 20.465 19.775 20.505 19.665 20.535C19.505 20.585 19.335 20.635 19.165 20.675C20.195 23.845 21.425 27.875 21.425 28.945C21.395 29.385 21.255 29.815 21.005 30.175C21.735 30.485 22.475 30.745 23.235 30.955C23.235 30.955 25.585 27.115 24.905 25.415C24.575 24.595 22.715 22.215 20.885 19.975C20.635 20.125 20.375 20.255 20.105 20.365V20.375Z" fill="#E4FF17"/>
<path d="M13.715 10.435C14.225 9.955 14.575 9.335 14.715 8.655C10.445 2.155 0.375 0.375 0.375 0.375C0.375 0.375 0.375022 5.18498 4.58502 5.79498H1.05505C1.05505 5.79498 0.965049 5.79499 0.925049 5.80499C0.605049 5.87499 0.395027 6.19498 0.465027 6.51498C0.715027 7.71498 1.64506 9.995 5.18506 9.995H1.36505C1.24505 9.995 1.12503 10.025 1.03503 10.095C0.755034 10.275 0.685051 10.645 0.865051 10.925C1.57505 11.995 3.18502 13.605 6.39502 13.605H2.88501C2.72501 13.605 2.57503 13.665 2.46503 13.775C2.22503 14.005 2.21501 14.385 2.44501 14.625C3.95501 16.215 7.86502 18.865 12.585 17.745C12.175 17.035 11.925 16.235 11.845 15.415C11.655 13.555 12.355 11.705 13.725 10.425L13.715 10.435Z" fill="#E4FF17"/>
<path d="M31.065 5.79498C35.275 5.19498 35.275 0.375 35.275 0.375C35.275 0.375 25.195 2.15498 20.925 8.66498C21.065 9.33498 21.405 9.935 21.905 10.405C22.115 10.595 22.305 10.805 22.485 11.025C22.505 11.045 22.525 11.065 22.535 11.085C22.705 11.305 22.865 11.535 23.005 11.765C23.015 11.795 23.035 11.815 23.045 11.845C23.185 12.085 23.305 12.335 23.405 12.585C23.405 12.605 23.4251 12.635 23.4351 12.655C23.5351 12.915 23.6251 13.185 23.6851 13.465C23.6851 13.495 23.685 13.515 23.705 13.545C23.735 13.705 23.765 13.855 23.785 14.015C23.785 14.075 23.7951 14.135 23.8051 14.195C23.8151 14.315 23.825 14.435 23.835 14.555C23.835 14.635 23.835 14.705 23.835 14.785C23.835 14.885 23.835 14.995 23.835 15.095C23.835 15.175 23.835 15.265 23.825 15.345C23.825 15.435 23.805 15.525 23.795 15.615C23.765 15.825 23.7351 16.025 23.6851 16.225C23.6751 16.275 23.665 16.325 23.655 16.365C23.625 16.485 23.585 16.605 23.545 16.725C23.525 16.775 23.5151 16.825 23.4951 16.875C23.4551 16.995 23.395 17.115 23.345 17.235C23.325 17.275 23.315 17.315 23.295 17.355C23.235 17.485 23.165 17.615 23.095 17.735C23.095 17.745 23.085 17.765 23.075 17.775C27.815 18.935 31.705 16.225 33.225 14.625C33.335 14.515 33.395 14.365 33.395 14.205C33.395 13.875 33.125 13.605 32.785 13.605H29.275C32.485 13.605 34.0951 11.995 34.8051 10.925C34.8751 10.825 34.905 10.705 34.905 10.595C34.905 10.265 34.6351 9.99497 34.3051 10.005H30.485C34.025 10.005 34.965 7.72499 35.205 6.52499C35.205 6.48499 35.215 6.44499 35.215 6.39499C35.215 6.06499 34.9451 5.79498 34.6151 5.79498H31.065Z" fill="#E4FF17"/>
<path d="M23.325 17.235C23.375 17.115 23.425 16.995 23.475 16.875C23.495 16.825 23.505 16.775 23.525 16.725C23.565 16.605 23.605 16.485 23.635 16.365C23.645 16.315 23.655 16.265 23.665 16.225C23.715 16.025 23.755 15.815 23.775 15.615C23.785 15.525 23.805 15.435 23.805 15.345C23.805 15.265 23.805 15.175 23.815 15.095C23.815 14.995 23.815 14.885 23.815 14.785C23.815 14.705 23.815 14.635 23.815 14.555C23.815 14.435 23.805 14.315 23.785 14.195C23.785 14.135 23.775 14.075 23.765 14.015C23.745 13.855 23.7151 13.705 23.6851 13.545C23.6851 13.515 23.685 13.495 23.665 13.465C23.605 13.185 23.515 12.915 23.415 12.655C23.415 12.635 23.395 12.605 23.385 12.585C23.285 12.325 23.165 12.085 23.025 11.845C23.015 11.815 22.995 11.795 22.985 11.765C22.845 11.525 22.695 11.305 22.515 11.085C22.495 11.065 22.475 11.045 22.465 11.025C22.285 10.805 22.095 10.595 21.885 10.405C21.385 9.93501 21.045 9.33499 20.905 8.66499C20.845 8.39499 20.815 8.11501 20.815 7.84501V5.925C20.845 4.345 19.675 2.99501 18.105 2.80501C16.445 2.64501 14.975 3.855 14.815 5.515C14.815 5.615 14.805 5.70501 14.805 5.80501V7.85499C14.805 8.13499 14.775 8.405 14.705 8.675C14.555 9.355 14.205 9.975 13.705 10.455C12.335 11.735 11.635 13.575 11.825 15.445C11.905 16.265 12.155 17.055 12.565 17.775C13.085 18.695 13.835 19.465 14.745 20.015C14.875 20.095 15.015 20.175 15.155 20.245C15.435 20.385 15.725 20.505 16.015 20.595C16.165 20.645 16.315 20.685 16.465 20.715C16.685 20.765 16.905 20.805 17.125 20.825C17.295 20.845 17.465 20.855 17.635 20.855C17.805 20.855 17.975 20.855 18.145 20.855C18.485 20.835 18.825 20.785 19.155 20.715C19.325 20.675 19.485 20.625 19.655 20.575C19.755 20.545 19.865 20.505 19.965 20.465C20.015 20.445 20.055 20.425 20.095 20.415C20.365 20.305 20.625 20.175 20.875 20.025C21.805 19.475 22.545 18.685 23.055 17.765C23.125 17.635 23.185 17.515 23.255 17.385C23.275 17.345 23.285 17.305 23.305 17.265L23.325 17.235ZM18.355 10.125C18.215 10.425 17.855 10.545 17.555 10.395C17.435 10.335 17.335 10.245 17.285 10.125L16.615 8.795C16.615 8.135 17.155 7.59501 17.815 7.59501C18.475 7.59501 19.015 8.135 19.015 8.795L18.345 10.125H18.355Z" stroke="black" stroke-width="0.75" stroke-linecap="round" stroke-linejoin="round"/>
<path d="M17.825 7.595C17.165 7.595 16.625 8.13498 16.625 8.79498L17.295 10.125C17.355 10.245 17.445 10.345 17.565 10.395C17.865 10.535 18.2151 10.415 18.3651 10.125L19.035 8.79498C19.035 8.13498 18.495 7.595 17.835 7.595H17.825Z" stroke="black" stroke-width="0.75" stroke-linecap="round" stroke-linejoin="round"/>
<path d="M19.175 20.685C18.845 20.765 18.505 20.805 18.165 20.825C17.995 20.825 17.825 20.835 17.655 20.825C17.485 20.815 17.315 20.805 17.145 20.795C16.925 20.775 16.705 20.735 16.485 20.685C16.295 21.275 16.095 21.905 15.895 22.535C15.825 22.745 15.765 22.955 15.695 23.165C15.495 23.795 15.305 24.425 15.135 25.025C14.615 26.825 14.225 28.365 14.225 28.965C14.255 29.405 14.395 29.835 14.645 30.195C15.585 31.805 17.835 33.475 17.835 33.475C17.835 33.475 20.085 31.805 21.035 30.195C21.285 29.825 21.425 29.405 21.455 28.965C21.455 27.895 20.225 23.855 19.195 20.695L19.175 20.685Z" stroke="black" stroke-width="0.75" stroke-linecap="round" stroke-linejoin="round"/>
<path d="M15.125 25.015C15.295 24.415 15.485 23.785 15.685 23.155C15.755 22.945 15.815 22.735 15.885 22.525C16.085 21.895 16.285 21.275 16.475 20.675C16.325 20.645 16.175 20.595 16.025 20.555C15.725 20.465 15.445 20.345 15.165 20.205C15.025 20.135 14.895 20.055 14.755 19.975C12.915 22.215 11.065 24.605 10.725 25.425C10.035 27.125 12.395 30.965 12.395 30.965C13.155 30.755 13.905 30.495 14.625 30.185C14.375 29.815 14.235 29.395 14.205 28.955C14.205 28.355 14.595 26.815 15.115 25.015H15.125Z" stroke="black" stroke-width="0.75" stroke-linecap="round" stroke-linejoin="round"/>
<path d="M20.105 20.375C20.105 20.375 20.015 20.415 19.975 20.425C19.875 20.465 19.775 20.505 19.665 20.535C19.505 20.585 19.335 20.635 19.165 20.675C20.195 23.845 21.425 27.875 21.425 28.945C21.395 29.385 21.255 29.815 21.005 30.175C21.735 30.485 22.475 30.745 23.235 30.955C23.235 30.955 25.585 27.115 24.905 25.415C24.575 24.595 22.715 22.215 20.885 19.975C20.635 20.125 20.375 20.255 20.105 20.365V20.375Z" stroke="black" stroke-width="0.75" stroke-linecap="round" stroke-linejoin="round"/>
<path d="M13.715 10.435C14.225 9.955 14.575 9.335 14.715 8.655C10.445 2.155 0.375 0.375 0.375 0.375C0.375 0.375 0.375022 5.18498 4.58502 5.79498H1.05505C1.05505 5.79498 0.965049 5.79499 0.925049 5.80499C0.605049 5.87499 0.395027 6.19498 0.465027 6.51498C0.715027 7.71498 1.64506 9.995 5.18506 9.995H1.36505C1.24505 9.995 1.12503 10.025 1.03503 10.095C0.755034 10.275 0.685051 10.645 0.865051 10.925C1.57505 11.995 3.18502 13.605 6.39502 13.605H2.88501C2.72501 13.605 2.57503 13.665 2.46503 13.775C2.22503 14.005 2.21501 14.385 2.44501 14.625C3.95501 16.215 7.86502 18.865 12.585 17.745C12.175 17.035 11.925 16.235 11.845 15.415C11.655 13.555 12.355 11.705 13.725 10.425L13.715 10.435Z" stroke="black" stroke-width="0.75" stroke-linecap="round" stroke-linejoin="round"/>
<path d="M31.065 5.79498C35.275 5.19498 35.275 0.375 35.275 0.375C35.275 0.375 25.195 2.15498 20.925 8.66498C21.065 9.33498 21.405 9.935 21.905 10.405C22.115 10.595 22.305 10.805 22.485 11.025C22.505 11.045 22.525 11.065 22.535 11.085C22.705 11.305 22.865 11.535 23.005 11.765C23.015 11.795 23.035 11.815 23.045 11.845C23.185 12.085 23.305 12.335 23.405 12.585C23.405 12.605 23.4251 12.635 23.4351 12.655C23.5351 12.915 23.6251 13.185 23.6851 13.465C23.6851 13.495 23.685 13.515 23.705 13.545C23.735 13.705 23.765 13.855 23.785 14.015C23.785 14.075 23.7951 14.135 23.8051 14.195C23.8151 14.315 23.825 14.435 23.835 14.555C23.835 14.635 23.835 14.705 23.835 14.785C23.835 14.885 23.835 14.995 23.835 15.095C23.835 15.175 23.835 15.265 23.825 15.345C23.825 15.435 23.805 15.525 23.795 15.615C23.765 15.825 23.7351 16.025 23.6851 16.225C23.6751 16.275 23.665 16.325 23.655 16.365C23.625 16.485 23.585 16.605 23.545 16.725C23.525 16.775 23.5151 16.825 23.4951 16.875C23.4551 16.995 23.395 17.115 23.345 17.235C23.325 17.275 23.315 17.315 23.295 17.355C23.235 17.485 23.165 17.615 23.095 17.735C23.095 17.745 23.085 17.765 23.075 17.775C27.815 18.935 31.705 16.225 33.225 14.625C33.335 14.515 33.395 14.365 33.395 14.205C33.395 13.875 33.125 13.605 32.785 13.605H29.275C32.485 13.605 34.0951 11.995 34.8051 10.925C34.8751 10.825 34.905 10.705 34.905 10.595C34.905 10.265 34.6351 9.99497 34.3051 10.005H30.485C34.025 10.005 34.965 7.72499 35.205 6.52499C35.205 6.48499 35.215 6.44499 35.215 6.39499C35.215 6.06499 34.9451 5.79498 34.6151 5.79498H31.065Z" stroke="black" stroke-width="0.75" stroke-linecap="round" stroke-linejoin="round"/>
</svg>
