<svg width="37" height="36" viewBox="0 0 37 36" fill="none" xmlns="http://www.w3.org/2000/svg">
<path d="M18.025 34.905C18.025 34.905 18.025 34.935 18.025 34.955C18.025 34.935 18.025 34.925 18.025 34.905C18.095 27.595 21.995 23.655 22.755 16.785C22.765 16.655 22.785 16.535 22.795 16.405C20.935 10.115 18.595 3.605 18.015 0.375C17.435 3.605 15.095 10.115 13.235 16.405C13.245 16.535 13.265 16.655 13.275 16.785C14.035 23.645 17.945 27.595 18.005 34.905H18.025Z" fill="#38FF45"/>
<path d="M18.025 34.905C17.955 27.595 14.055 23.655 13.295 16.785C13.285 16.655 13.265 16.535 13.255 16.405C12.425 8.65503 13.145 6.795 10.805 4.215C12.315 7.415 10.995 8.98502 9.505 16.955C8.975 19.775 9.01499 22.325 9.46499 24.565C12.945 28.435 17.605 31.465 18.035 34.895L18.025 34.905Z" fill="#38FF45"/>
<path d="M18.045 34.905C18.465 31.475 23.125 28.445 26.615 24.575C27.065 22.325 27.095 19.785 26.575 16.965C25.085 8.98503 23.765 7.42501 25.275 4.22501C22.935 6.80501 23.655 8.66498 22.825 16.415C22.815 16.545 22.795 16.665 22.785 16.795C22.025 23.655 18.115 27.605 18.055 34.915L18.045 34.905Z" fill="#38FF45"/>
<path d="M18.035 34.955C18.035 34.955 18.035 34.925 18.035 34.905C17.615 31.475 12.955 28.445 9.465 24.575C8.605 23.625 7.82501 22.625 7.19501 21.555C3.40501 15.145 3.355 13.275 0.375 11.975C2.845 14.085 2.32499 15.895 4.08499 23.135C6.20499 31.865 12.595 35.505 18.035 35.095C18.035 35.095 18.025 35.095 18.015 35.095C18.015 35.045 18.025 35.005 18.035 34.955Z" fill="#38FF45"/>
<path d="M28.885 21.555C28.255 22.625 27.465 23.625 26.615 24.575C23.135 28.445 18.475 31.475 18.045 34.905C18.045 34.925 18.045 34.935 18.045 34.955C18.045 35.005 18.035 35.045 18.025 35.095C18.025 35.095 18.035 35.095 18.045 35.095C23.485 35.505 29.875 31.865 31.995 23.135C33.755 15.895 33.235 14.095 35.705 11.975C32.725 13.275 32.675 15.145 28.885 21.555Z" fill="#38FF45"/>
<path d="M18.025 34.905C18.025 34.905 18.025 34.935 18.025 34.955C18.025 34.935 18.025 34.925 18.025 34.905ZM18.025 34.905C18.095 27.595 21.995 23.655 22.755 16.785C22.765 16.655 22.785 16.535 22.795 16.405C20.935 10.115 18.595 3.605 18.015 0.375C17.435 3.605 15.095 10.115 13.235 16.405C13.245 16.535 13.265 16.655 13.275 16.785C14.035 23.645 17.945 27.595 18.005 34.905H18.025ZM18.025 34.905C17.955 27.595 14.055 23.655 13.295 16.785C13.285 16.655 13.265 16.535 13.255 16.405C12.425 8.65503 13.145 6.795 10.805 4.215C12.315 7.415 10.995 8.98502 9.505 16.955C8.975 19.775 9.01499 22.325 9.46499 24.565C12.945 28.435 17.605 31.465 18.035 34.895L18.025 34.905ZM18.045 34.905C18.465 31.475 23.125 28.445 26.615 24.575M18.045 34.905L18.055 34.915C18.115 27.605 22.025 23.655 22.785 16.795C22.795 16.665 22.815 16.545 22.825 16.415C23.655 8.66498 22.935 6.80501 25.275 4.22501C23.765 7.42501 25.085 8.98503 26.575 16.965C27.095 19.785 27.065 22.325 26.615 24.575M18.045 34.905C18.475 31.475 23.135 28.445 26.615 24.575M18.045 34.905C18.045 34.925 18.045 34.935 18.045 34.955C18.045 35.005 18.035 35.045 18.025 35.095C18.025 35.095 18.035 35.095 18.045 35.095C23.485 35.505 29.875 31.865 31.995 23.135C33.755 15.895 33.235 14.095 35.705 11.975C32.725 13.275 32.675 15.145 28.885 21.555C28.255 22.625 27.465 23.625 26.615 24.575M18.035 34.955C18.035 34.955 18.035 34.925 18.035 34.905C17.615 31.475 12.955 28.445 9.465 24.575C8.605 23.625 7.82501 22.625 7.19501 21.555C3.40501 15.145 3.355 13.275 0.375 11.975C2.845 14.085 2.32499 15.895 4.08499 23.135C6.20499 31.865 12.595 35.505 18.035 35.095C18.035 35.095 18.025 35.095 18.015 35.095C18.015 35.045 18.025 35.005 18.035 34.955Z" stroke="black" stroke-width="0.75" stroke-linecap="round" stroke-linejoin="round"/>
</svg>
