<?xml version="1.0" encoding="UTF-8"?>
<svg id="Layer_1" xmlns="http://www.w3.org/2000/svg" version="1.1" viewBox="0 0 36 36">
 <!-- Generator: Adobe Illustrator 30.2.1, SVG Export Plug-In . SVG Version: 2.1.1 Build 1) -->
 <path stroke="#000" stroke-linecap="round" stroke-linejoin="round" stroke-width=".8px" fill="#cb834e" d="M35.2,27.4c-.2-.8-1.1-1.2-2-1.3-.2-.8-.9-1.4-1.7-1.4s-1,0-1.2-.2c-1.5-1-2.5-1.5-3.9-.2-.4.3-.4.4-1.4.4-.8,0-1.5.6-1.7,1.4-2.7-.2-3.5,1.6-3.6,2-.3.9-2.4.7-3.1,2.3-.7,1.5-2.7,1.9-4.4,1.5-.8-.2-1.6-.6-2.1-1.2-.8-1.2-1.6-3.3-3.2-3.4H1c-.9,0-.6,1.3-.6,1.8v4.9c0,.3.3.6.6.6h32.2c2.4,0,2,0,2-2.1,0-1,.1-4.1,0-5.1h0Z"/>
 <line fill="none" stroke="#000" stroke-linecap="round" stroke-linejoin="round" stroke-width=".8px" x1="29.8" y1="28" x2="31.7" y2="28"/>
 <line fill="none" stroke="#000" stroke-linecap="round" stroke-linejoin="round" stroke-width=".8px" x1="28.7" y1="29.7" x2="30.7" y2="29.7"/>
 <line fill="none" stroke="#000" stroke-linecap="round" stroke-linejoin="round" stroke-width=".8px" x1="3" y1="30.6" x2="3.8" y2="30.6"/>
 <line fill="none" stroke="#000" stroke-linecap="round" stroke-linejoin="round" stroke-width=".8px" x1="3.4" y1="32.3" x2="4" y2="32.3"/>
 <path stroke="#000" stroke-linecap="round" stroke-linejoin="round" stroke-width=".8px" fill="#cb834e" d="M12.5,13.8l6.5-2.3c-.1-.6-.5-2-.7-2.5-5.2-1.5-5.1,2.1-7.1,2.2-2.3.2-3.7,2.6-3.5,4.9.9-.8,2.4-1.6,4.7-2.4Z"/>
 <path fill="none" stroke="#000" stroke-linecap="round" stroke-linejoin="round" stroke-width=".8px" d="M20.7,8.7c0-.4.1-.8.5-.9l4.1-1.4c-.5-.6-.7-1.5-.6-2.3l-5.1,1.6c-1.1.3-1.8,1.4-1.5,2.5.2.9.6,2.3.9,3.2l-6.5,2.3c-3.5,1.4-5.9,2.1-6.2,5.4l13.2-3.3c1.5-.4,2.5-1.9,2.1-3.4l-.9-3.8h0Z"/>
 <path fill="none" stroke="#000" stroke-linecap="round" stroke-linejoin="round" stroke-width=".8px" d="M26.7,1.8c-3.3,1.1-2,6.3,1.5,5.8l-1.5-5.8Z"/>
 <path stroke="#000" stroke-linecap="round" stroke-linejoin="round" stroke-width=".8px" fill="#cb834e" d="M34.7,4.3l-.7-2.8c-.2-.8-1-1.3-1.9-1.1l-5.2,1.3c0,0-.1,0-.2,0l1.5,5.8c0,0,.1,0,.2,0l5.2-1.3c.8-.2,1.3-1,1.1-1.9h0Z"/>
</svg>