<?xml version="1.0" encoding="UTF-8"?>
<svg id="Layer_1" xmlns="http://www.w3.org/2000/svg" version="1.1" viewBox="0 0 48 48">
 <!-- Generator: Adobe Illustrator 30.2.1, SVG Export Plug-In . SVG Version: 2.1.1 Build 1) -->
 <path stroke="#000" stroke-miterlimit="10" stroke-width=".8px" fill="#38ff45" d="M33.1,6.5c-.6-5.4-5.8-6.9-7.6-1.8,0,0-1,0-1.5,0s-1.5,0-1.5,0c-1.8-5-7-3.6-7.6,1.8,0,0-3.3,3.1-3.1,6.8.2,3.7,3.8,6.6,9,7h6.6c5.1-.4,8.7-3.3,9-7,.2-3.8-3.1-6.8-3.1-6.8ZM16.2,6.4c0-1.7,1.1-3,2.4-3s2.4,1.3,2.4,3-1.1,3-2.4,3-2.4-1.3-2.4-3ZM24,15c-1.7,0-3.1-.1-4.2-.4,1.1-.7,2.6-1.1,4.2-1.1s3.2.4,4.2,1.1c-1.2.2-2.6.4-4.2.4ZM29.4,9.4c-1.3,0-2.4-1.3-2.4-3s1.1-3,2.4-3,2.4,1.3,2.4,3-1.1,3-2.4,3Z"/>
 <path stroke="#000" stroke-miterlimit="10" stroke-width=".8px" fill="#38ff45" d="M22.1,34.7c-.1,2.6.1,6.3.2,7.2,0,1.1.1,1.9-1.1,2.9-2.1,1.8-4.5,2.2-4.7,1.2-1.2.3-1.9,0-2-.6-.7,0-.9-.5-.7-1,.6-1.2,4.8-2.4,4.8-2.4,0,0-1.2-5.2-1.4-9.8l1.1,1,1.6.7,2.1.8h0Z"/>
 <path stroke="#000" stroke-miterlimit="10" stroke-width=".8px" fill="#38ff45" d="M30.6,32.4c-.2,4.6-1.2,9.6-1.2,9.6,0,0,4.2,1.1,4.8,2.4.2.4,0,1-.7,1,0,.6-.8,1-2,.6-.2.9-2.6.6-4.7-1.2-1.2-1-1.1-1.8-1.1-2.9,0-.8.1-4.5,0-7.2l1.3-.4,1.3-.5,1.3-.5.9-.8h0Z"/>
 <path stroke="#000" stroke-miterlimit="10" stroke-width=".8px" fill="#38ff45" d="M18.7,23.8c-1.5.7-5.1,6.5-5.3,7.2.2,1.2.4,3.8-.8,3.8-1.2,0-.9-2.2-1.6-1.9-.5.2-1.2,1.5-1.9,2.2-.7.8-1.6.6-1.7-.5-.8-.2-.9-2.2,1.1-5.3,0,0,2.3-4.9,10.1-9.4h10.3c7.8,4.6,10.5,9.4,10.5,9.4,2.1,3,2,5,1.1,5.3,0,1.1-1.1,1.3-1.7.5-.6-.7-1.4-2-1.9-2.2-.7-.3-.4,1.9-1.6,1.9-1.2,0-1-2.6-.8-3.8-.2-.7-4-6.7-5.6-7.5"/>
 <path stroke="#000" stroke-miterlimit="10" stroke-width=".8px" fill="#38ff45" d="M18.8,23.6c-2.8,4.2-3.9,7.2-.4,9.6l2.2.9s1.5.8,3.4.8,3.4-.8,3.4-.8l2.2-.9c3.4-2.4,2.2-5.4-.6-9.6"/>
 <path fill="none" stroke="#000" stroke-miterlimit="10" stroke-width=".8px" d="M27.3,20.3h-6.6s-7.4-1.5-6.2-8.2c4.1,1.9,6.4-.1,9.5-.1s5.4,2,9.5.1c1.2,6.7-6.2,8.2-6.2,8.2h0Z"/>
 <ellipse fill="none" stroke="#000" stroke-miterlimit="10" stroke-width=".8px" cx="19.3" cy="6.7" rx=".9" ry="1.1"/>
 <ellipse fill="none" stroke="#000" stroke-miterlimit="10" stroke-width=".8px" cx="28.7" cy="6.7" rx=".9" ry="1.1"/>
 <ellipse fill="#120a54" cx="23.2" cy="9.2" rx=".3" ry=".4"/>
 <ellipse fill="#120a54" cx="24.8" cy="9.2" rx=".3" ry=".4"/>
</svg>