<?xml version="1.0" encoding="UTF-8"?>
<svg id="Layer_1" xmlns="http://www.w3.org/2000/svg" version="1.1" viewBox="0 0 36 35">
 <!-- Generator: Adobe Illustrator 30.2.1, SVG Export Plug-In . SVG Version: 2.1.1 Build 1) -->
 <path fill="none" stroke="#000" stroke-linecap="round" stroke-linejoin="round" stroke-width=".8px" d="M20.4,5.7c1.1-1.5,2.8-2.4,4.8-2.4,3.3,0,6,2.7,6,6s-1,3.7-2.4,4.8"/>
 <path fill="none" stroke="#000" stroke-linecap="round" stroke-linejoin="round" stroke-width=".8px" d="M20.4,5.7c1.9.6,3.7,1.6,5.2,3.1"/>
 <path fill="none" stroke="#000" stroke-linecap="round" stroke-linejoin="round" stroke-width=".8px" d="M7.1,22.5c1.1,2.1,2.8,3.9,4.9,4.9"/>
 <path fill="none" stroke="#000" stroke-linecap="round" stroke-linejoin="round" stroke-width=".8px" d="M7.1,22.4h0"/>
 <line fill="none" stroke="#000" stroke-linecap="round" stroke-linejoin="round" stroke-width=".8px" x1="4.5" y1="15.3" x2=".4" y2="14.9"/>
 <line fill="none" stroke="#000" stroke-linecap="round" stroke-linejoin="round" stroke-width=".8px" x1="8.7" y1="8.1" x2="6.1" y2="4.4"/>
 <line fill="none" stroke="#000" stroke-linecap="round" stroke-linejoin="round" stroke-width=".8px" x1="17.1" y1="1.1" x2="16.8" y2="5.1"/>
 <line fill="none" stroke="#000" stroke-linecap="round" stroke-linejoin="round" stroke-width=".8px" x1="27.3" y1="3.6" x2="28.8" y2=".4"/>
 <line fill="none" stroke="#000" stroke-linecap="round" stroke-linejoin="round" stroke-width=".8px" x1="30.8" y1="7.1" x2="35.3" y2="5.9"/>
 <line fill="none" stroke="#000" stroke-linecap="round" stroke-linejoin="round" stroke-width=".8px" x1="33.9" y1="20.3" x2="29" y2="20.4"/>
 <line fill="none" stroke="#000" stroke-linecap="round" stroke-linejoin="round" stroke-width=".8px" x1="28.1" y1="30.6" x2="25.1" y2="27.4"/>
 <line fill="none" stroke="#000" stroke-linecap="round" stroke-linejoin="round" stroke-width=".8px" x1="19" y1="30.3" x2="18.7" y2="34.3"/>
 <path stroke="#000" stroke-linecap="round" stroke-linejoin="round" stroke-width=".8px" fill="#e4ff17" d="M28.8,14h0c-.6-2-1.6-3.7-3.1-5.2h0c-1.5-1.5-3.1-2.5-5.1-3.1h-.1c-3-1-6.3-.7-9.3.7-6.2,3.1-8.7,10.7-5.6,16.8l1.6-.9h0s11.7-6.8,11.7-6.8l-6.8,11.8-.9,1.6c4.8,2.4,10.7,1.5,14.5-2.3,3.4-3.4,4.4-8.2,3.1-12.5ZM9.2,17.8c-1,0-1.8-.8-1.8-1.8s.8-1.8,1.8-1.8,1.8.8,1.8,1.8-.8,1.8-1.8,1.8ZM14.7,12.3c-1,0-1.8-.8-1.8-1.8s.8-1.8,1.8-1.8,1.8.8,1.8,1.8-.8,1.8-1.8,1.8ZM18.5,27.1c-1,0-1.8-.8-1.8-1.8s.8-1.8,1.8-1.8,1.8.8,1.8,1.8-.8,1.8-1.8,1.8ZM20.5,12.2c0-1,.8-1.8,1.8-1.8s1.8.8,1.8,1.8-.8,1.8-1.8,1.8-1.8-.8-1.8-1.8ZM24,21.6c-1,0-1.8-.8-1.8-1.8s.8-1.8,1.8-1.8,1.8.8,1.8,1.8-.8,1.8-1.8,1.8Z"/>
</svg>