<?xml version="1.0" encoding="UTF-8"?>
<svg id="Layer_1" xmlns="http://www.w3.org/2000/svg" version="1.1" viewBox="0 0 48 48">
  <!-- Generator: Adobe Illustrator 30.2.1, SVG Export Plug-In . SVG Version: 2.1.1 Build 1)  -->
  <defs>
    <style>
      .st0 {
        fill: #e4ff17;
      }

      .st0, .st1 {
        stroke: #000;
        stroke-miterlimit: 10;
        stroke-width: .8px;
      }

      .st1 {
        fill: none;
      }
    </style>
  </defs>
  <g>
    <g>
      <path class="st0" d="M11.1,17.2h-4.8c0,2.6,2.1,4.7,4.7,4.7h1.5"/>
      <path class="st0" d="M10.8,22h0c0,2.6,2.1,4.7,4.7,4.7v-8.2c.1-3.3-2.5-5.9-5.8-6H1.5c0,2.6,2.1,4.7,4.7,4.7h1.5"/>
    </g>
    <g>
      <path class="st0" d="M36.9,17.3h4.8c0,2.6-2.1,4.7-4.7,4.7h-1.5"/>
      <path class="st0" d="M37.2,22h0c0,2.6-2.1,4.7-4.7,4.7v-8.2c0-3.3,2.5-5.9,5.8-6h8.3c0,2.6-2.1,4.7-4.7,4.7h-1.5"/>
    </g>
  </g>
  <g>
    <g>
      <line class="st1" x1="20.1" y1="33.1" x2="20.1" y2="40"/>
      <path class="st1" d="M17.7,40c0-1.3,1.1-2.4,2.4-2.4s2.4,1.1,2.4,2.4"/>
    </g>
    <g>
      <line class="st1" x1="27.9" y1="33.2" x2="27.9" y2="40"/>
      <path class="st1" d="M25.5,40c0-1.3,1.1-2.4,2.4-2.4s2.4,1.1,2.4,2.4"/>
    </g>
  </g>
  <path class="st0" d="M15.6,19.2h16.7v7.8c0,3.9-3.2,7.1-7.1,7.1h-2.6c-3.9,0-7.1-3.2-7.1-7.1v-7.8h0Z"/>
  <line class="st1" x1="18.8" y1="23.1" x2="18.8" y2="25.3"/>
  <line class="st1" x1="21.4" y1="21.5" x2="21.4" y2="23.7"/>
  <line class="st1" x1="24" y1="23.1" x2="24" y2="25.3"/>
  <line class="st1" x1="26.6" y1="21.5" x2="26.6" y2="23.7"/>
  <line class="st1" x1="29.2" y1="23.1" x2="29.2" y2="25.3"/>
  <line class="st1" x1="18.8" y1="27.1" x2="18.8" y2="29.3"/>
  <line class="st1" x1="21.4" y1="25.5" x2="21.4" y2="27.7"/>
  <line class="st1" x1="24" y1="27.1" x2="24" y2="29.3"/>
  <line class="st1" x1="26.6" y1="25.5" x2="26.6" y2="27.7"/>
  <line class="st1" x1="29.2" y1="27.1" x2="29.2" y2="29.3"/>
  <line class="st1" x1="21.4" y1="29.5" x2="21.4" y2="31.7"/>
  <line class="st1" x1="26.6" y1="29.5" x2="26.6" y2="31.7"/>
  <path class="st1" d="M21.5,10.4c.7.7,1.3,1.6,1.7,2.6"/>
  <path class="st1" d="M21.5,10.4c-1.5-1.5-2.4-1.9-4.7-1.9"/>
  <path class="st1" d="M24,16.4c0-1.2-.3-2.3-.7-3.4"/>
  <path class="st1" d="M21.6,10.5h-.3c-1.2,0-2.1.9-2.1,2.1s.9,2.1,2.1,2.1,1.8-.7,2-1.6"/>
  <path d="M21.7,12.5c0,.3-.2.5-.5.5s-.5-.2-.5-.5.2-.5.5-.5.5.2.5.5Z"/>
  <path class="st1" d="M26.5,10.4c-.7.7-1.3,1.6-1.7,2.6"/>
  <path class="st1" d="M26.5,10.4c1.5-1.5,1.5-2.4,3.9-2.4"/>
  <path class="st1" d="M24,16.4c0-1.2.3-2.3.7-3.4"/>
  <path class="st1" d="M26.5,10.4h.3c1.2,0,2.1.9,2.1,2.1s-.9,2.1-2.1,2.1-1.8-.7-2-1.6"/>
  <path d="M26.3,12.5c0,.3.2.5.5.5s.5-.2.5-.5-.2-.5-.5-.5-.5.2-.5.5Z"/>
  <path class="st1" d="M18.4,8h11.1c1.6,0,2.8,1.3,2.8,2.8v8.4H15.6v-8.4c0-1.6,1.3-2.8,2.8-2.8Z"/>
</svg>