<svg width="31" height="36" viewBox="0 0 31 36" fill="none" xmlns="http://www.w3.org/2000/svg">
<path d="M8.19498 13.575C5.53498 11.015 2.68497 8.225 1.28497 4.845C0.714973 3.465 0.375 1.985 0.375 0.375H8.89499C14.775 0.375 19.545 5.56498 19.545 11.445V10.325C19.545 7.14498 22.365 4.625 25.645 5.125C27.395 5.395 28.845 6.62499 29.635 8.20499L30.195 9.315L28.605 9.63498C27.305 9.89498 26.495 11.295 27.045 12.505C28.285 15.225 27.125 18.225 25.695 19.655C23.435 21.915 20.965 22.995 18.485 24.035L17.935 24.585C15.205 27.315 13.675 31.435 13.675 35.295C9.76499 33.345 6.59499 30.175 4.64499 26.265C8.45499 26.265 12.105 24.345 14.815 21.685C13.745 18.815 11.015 16.275 8.20499 13.575H8.19498Z" fill="#E4FF17" stroke="black" stroke-width="0.75" stroke-linecap="round" stroke-linejoin="round"/>
</svg>
