<svg width="40" height="15" viewBox="0 0 40 15" fill="none" xmlns="http://www.w3.org/2000/svg">
<path d="M19.875 10.375C19.875 12.308 20.875 15.375 16.375 13.875C13.6136 13.875 11.375 14.308 11.375 12.375C11.375 10.442 13.6136 7.875 16.375 7.875C19.1364 7.875 20.875 8.375 19.875 10.375Z" fill="#CB834E"/>
<path d="M36.875 11.875C36.875 13.375 38.875 14.375 34.375 14.375C31.6136 14.375 29.375 14.808 29.375 12.875C29.375 10.942 31.1136 9.375 33.875 9.375C35.375 10.875 35.875 9.875 36.875 11.875Z" fill="#CB834E"/>
<path d="M7.375 8.375C7.375 10.308 8.37501 15.375 3.87501 13.875C0.875002 14.875 0.875 12.808 0.875 10.875C0.875 8.942 3.11357 4.875 5.875 4.875C8.63642 4.875 5.3503 7.875 7.375 8.375Z" fill="#CB834E"/>
<path d="M31.855 9.67044C30.595 6.07044 26.035 4.45048 22.795 6.49048C20.155 7.99048 19.315 11.2904 20.095 14.1704M31.855 9.67044C34.735 8.41044 37.675 11.1704 37.135 14.1704M31.855 9.67044C30.115 10.4504 29.275 12.3705 29.575 14.1705M6.175 14.1704C6.655 11.8904 9.415 10.2104 11.635 10.3904M11.635 10.3904C13.255 7.39041 17.935 6.37041 20.515 8.77041M11.635 10.3904C11.155 11.5304 11.395 13.1504 12.115 14.1704M0.375 14.1704L39.595 14.1705M27.375 5.2688C26.115 1.6688 20.035 -0.950414 16.795 1.08959C14.155 2.58959 13.595 4.8888 14.375 7.7688M1.375 13.7688C-1.625 10.6704 4.875 3.36953 6.875 5.2688M6.875 5.2688C8.495 2.2688 11.935 0.969531 14.515 3.36953M6.875 5.2688C6.395 6.4088 7.155 10.2488 7.875 11.2688" stroke="black" stroke-width="0.75" stroke-linecap="round" stroke-linejoin="round"/>
</svg>
