<?xml version="1.0" encoding="UTF-8"?>
<svg id="Layer_1" xmlns="http://www.w3.org/2000/svg" version="1.1" viewBox="0 0 36 38">
  <!-- Generator: Adobe Illustrator 30.2.1, SVG Export Plug-In . SVG Version: 2.1.1 Build 1)  -->
  <defs>
    <style>
      .st0 {
        fill: none;
      }

      .st0, .st1 {
        stroke: #000;
        stroke-linecap: round;
        stroke-linejoin: round;
        stroke-width: .8px;
      }

      .st1 {
        fill: #fff;
      }
    </style>
  </defs>
  <path class="st0" d="M30.2,5.2c-.5,0-.9,0-1.4.2-1-2.9-3.7-5-6.9-5s-6,2.1-6.9,5l3,10.4h12.3c2.9,0,5.3-2.4,5.3-5.3s-2.4-5.3-5.3-5.3h0Z"/>
  <path class="st1" d="M18,7.3c-.4,0-.8,0-1.1.2-.8-2.3-3-4-5.5-4s-4.8,1.7-5.5,4c-.4,0-.7-.2-1.1-.2C2.3,7.3.4,9.2.4,11.6s1.9,4.2,4.2,4.2h13.3c2.3,0,4.2-1.9,4.2-4.2s-1.9-4.2-4.2-4.2h0Z"/>
  <path class="st1" d="M15.9,22.6l2.5-4.4h-3c0-.1-5.8,6.8-5.8,6.8l4.6-.9-4,8.1,7.9-8.1,1.5-1.5h-3.6Z"/>
  <path class="st1" d="M23.9,27.6l2.5-4.4h-3c0-.1-5.8,6.8-5.8,6.8l4.6-.9-4,8.1,7.9-8.1,1.5-1.5h-3.6Z"/>
</svg>