<svg width="35" height="15" viewBox="0 0 35 15" fill="none" xmlns="http://www.w3.org/2000/svg">
<path d="M15.525 13.895C16.615 13.895 17.505 13.005 17.505 11.915V10.725H16.315C15.225 10.725 14.335 11.615 14.335 12.705V13.895H15.525Z" fill="#CB834E"/>
<path d="M0.375 8.185C0.375 9.275 1.26498 10.165 2.35498 10.165H3.54498V8.97501C3.54498 7.88501 2.655 6.995 1.565 6.995H0.375V8.185Z" fill="#CB834E"/>
<path d="M24.335 9.67499C24.335 11.135 25.515 12.315 26.975 12.315H28.035V11.255C28.035 9.795 26.855 8.61499 25.395 8.61499H24.335V9.67499Z" fill="#CB834E"/>
<path d="M34.375 5.44501H29.095L32.265 1.22501L31.125 0.375L26.615 5.77499C26.515 5.89499 26.365 5.965 26.215 5.965L10.095 5.98499L1.64499 11.455V14.415L9.565 8.625H15.415L19.085 12.295L20.575 11.185L21.175 10.735L19.065 8.625H34.375V5.44501Z" stroke="black" stroke-width="0.75" stroke-linecap="round" stroke-linejoin="round"/>
<path d="M15.525 13.895C16.615 13.895 17.505 13.005 17.505 11.915V10.725H16.315C15.225 10.725 14.335 11.615 14.335 12.705V13.895H15.525Z" stroke="black" stroke-width="0.75" stroke-linecap="round" stroke-linejoin="round"/>
<path d="M0.375 8.185C0.375 9.275 1.26498 10.165 2.35498 10.165H3.54498V8.97501C3.54498 7.88501 2.655 6.995 1.565 6.995H0.375V8.185Z" stroke="black" stroke-width="0.75" stroke-linecap="round" stroke-linejoin="round"/>
<path d="M24.335 9.67499C24.335 11.135 25.515 12.315 26.975 12.315H28.035V11.255C28.035 9.795 26.855 8.61499 25.395 8.61499H24.335V9.67499Z" stroke="black" stroke-width="0.75" stroke-linecap="round" stroke-linejoin="round"/>
</svg>
