<svg width="36" height="36" viewBox="0 0 36 36" fill="none" xmlns="http://www.w3.org/2000/svg">
<path d="M12.6351 8.48968C12.3351 10.1997 13.4751 11.8397 15.1951 12.1397C15.4851 12.1897 15.7951 12.1997 16.0851 12.1697C16.6551 12.1097 17.1151 11.6797 17.2051 11.1097C17.8151 7.60968 13.0151 6.26968 12.6251 8.48968H12.6351ZM30.365 1.86968C30.0651 3.57968 31.205 5.21968 32.925 5.51968C33.215 5.56968 33.5251 5.57968 33.8151 5.54968C34.3851 5.48968 34.8451 5.05968 34.9351 4.48968C35.5451 0.989682 30.7451 -0.350321 30.3551 1.86968H30.365ZM11.0351 1.98968C10.9851 1.46968 10.6651 1.00968 10.1851 0.799679C6.80506 -0.700321 3.05507 1.97968 3.38507 5.66968C3.43507 6.18968 3.75504 6.64968 4.23504 6.85968C7.61504 8.35968 11.3651 5.67968 11.0351 1.98968ZM35.4751 20.1097C35.7851 23.2597 31.4651 24.3497 31.2051 22.1597C30.8251 18.9897 35.2551 17.7897 35.4751 20.1097ZM31.7651 12.8097C31.5851 13.1597 31.2251 13.3897 30.8351 13.4197C27.5751 13.6497 25.3051 10.2397 26.7851 7.32968C26.9751 6.94968 27.3551 6.69968 27.7851 6.67968C31.0451 6.47968 33.2751 9.90968 31.7751 12.8097H31.7651Z" fill="#17C0FF"/>
<path d="M21.3551 8.51968C22.2443 8.51968 22.9651 7.79886 22.9651 6.90968C22.9651 6.0205 22.2443 5.29968 21.3551 5.29968C20.4659 5.29968 19.7451 6.0205 19.7451 6.90968C19.7451 7.79886 20.4659 8.51968 21.3551 8.51968Z" fill="#17C0FF"/>
<path d="M33.3351 35.0597C34.2243 35.0597 34.9451 34.3389 34.9451 33.4497C34.9451 32.5605 34.2243 31.8397 33.3351 31.8397C32.4459 31.8397 31.7251 32.5605 31.7251 33.4497C31.7251 34.3389 32.4459 35.0597 33.3351 35.0597Z" fill="#17C0FF"/>
<path d="M18.2651 3.65968C19.0162 3.65968 19.6251 3.05079 19.6251 2.29968C19.6251 1.54857 19.0162 0.939678 18.2651 0.939678C17.514 0.939678 16.9051 1.54857 16.9051 2.29968C16.9051 3.05079 17.514 3.65968 18.2651 3.65968Z" fill="#17C0FF"/>
<path d="M4.96509 14.9897C5.91502 14.9897 6.68506 14.2196 6.68506 13.2697C6.68506 12.3197 5.91502 11.5497 4.96509 11.5497C4.01516 11.5497 3.24506 12.3197 3.24506 13.2697C3.24506 14.2196 4.01516 14.9897 4.96509 14.9897Z" fill="#17C0FF"/>
<path d="M31.3151 13.0597C31.6751 13.9097 32.045 14.7997 32.235 15.6397M2.12506 29.6997C2.38506 29.6997 18.4951 32.5797 24.0751 26.8797C27.9451 23.0097 26.6051 16.5297 22.2251 14.5297M0.375061 33.7697C2.30506 34.7397 25.6451 37.4697 32.6551 26.0197M4.31506 25.6397C10.0551 26.4897 14.9251 26.7497 17.0251 22.8097C19.3251 19.1697 16.1651 14.5497 12.3851 15.3997C10.4351 15.8397 8.91507 17.7097 9.38507 19.7597C10.0151 22.5497 13.3951 23.1797 14.7651 20.9997M12.6351 8.48968C12.3351 10.1997 13.4751 11.8397 15.1951 12.1397C15.4851 12.1897 15.7951 12.1997 16.0851 12.1697C16.6551 12.1097 17.1151 11.6797 17.2051 11.1097C17.8151 7.60968 13.0151 6.26968 12.6251 8.48968H12.6351ZM30.365 1.86968C30.065 3.57968 31.205 5.21968 32.925 5.51968C33.215 5.56968 33.5251 5.57968 33.8151 5.54968C34.3851 5.48968 34.8451 5.05968 34.9351 4.48968C35.5451 0.989682 30.7451 -0.350321 30.3551 1.86968H30.365ZM11.0351 1.98968C10.9851 1.46968 10.6651 1.00968 10.1851 0.799679C6.80506 -0.700321 3.05507 1.97968 3.38507 5.66968C3.43507 6.18968 3.75504 6.64968 4.23504 6.85968C7.61504 8.35968 11.3651 5.67968 11.0351 1.98968ZM35.4751 20.1097C35.7851 23.2597 31.4651 24.3497 31.2051 22.1597C30.8251 18.9897 35.2551 17.7897 35.4751 20.1097ZM31.7651 12.8097C31.5851 13.1597 31.2251 13.3897 30.8351 13.4197C27.5751 13.6497 25.3051 10.2397 26.7851 7.32968C26.9751 6.94968 27.3551 6.69968 27.7851 6.67968C31.0451 6.47968 33.2751 9.90968 31.7751 12.8097H31.7651ZM22.9651 6.90968C22.9651 7.79886 22.2443 8.51968 21.3551 8.51968C20.4659 8.51968 19.7451 7.79886 19.7451 6.90968C19.7451 6.0205 20.4659 5.29968 21.3551 5.29968C22.2443 5.29968 22.9651 6.0205 22.9651 6.90968ZM34.9451 33.4497C34.9451 34.3389 34.2243 35.0597 33.3351 35.0597C32.4459 35.0597 31.7251 34.3389 31.7251 33.4497C31.7251 32.5605 32.4459 31.8397 33.3351 31.8397C34.2243 31.8397 34.9451 32.5605 34.9451 33.4497ZM19.6251 2.29968C19.6251 3.05079 19.0162 3.65968 18.2651 3.65968C17.514 3.65968 16.9051 3.05079 16.9051 2.29968C16.9051 1.54857 17.514 0.939678 18.2651 0.939678C19.0162 0.939678 19.6251 1.54857 19.6251 2.29968ZM6.68506 13.2697C6.68506 14.2196 5.91502 14.9897 4.96509 14.9897C4.01516 14.9897 3.24506 14.2196 3.24506 13.2697C3.24506 12.3198 4.01516 11.5497 4.96509 11.5497C5.91502 11.5497 6.68506 12.3198 6.68506 13.2697Z" stroke="black" stroke-width="0.75" stroke-linecap="round" stroke-linejoin="round"/>
</svg>
