<svg width="34" height="35" viewBox="0 0 34 35" fill="none" xmlns="http://www.w3.org/2000/svg">
<path d="M0.375 0.375V21.495Z" fill="#17C0FF"/>
<path d="M0.375 2.685L3.47498 5.32498V16.545L0.375 19.185V2.685ZM11.055 6.64499H22.275C22.855 6.64499 23.335 7.11499 23.335 7.70499V14.175C23.335 14.755 22.865 15.235 22.275 15.235H11.055C10.475 15.235 9.995 14.765 9.995 14.175V7.70499C9.995 7.12499 10.465 6.64499 11.055 6.64499Z" fill="#17C0FF"/>
<path d="M14.625 2.685H18.705V6.64499H14.625V2.685Z" fill="#17C0FF"/>
<path d="M0.375 0.375V21.495M0.375 2.685L3.47498 5.32498V16.545L0.375 19.185V2.685ZM11.055 6.64499H22.275C22.855 6.64499 23.335 7.11499 23.335 7.70499V14.175C23.335 14.755 22.865 15.235 22.275 15.235H11.055C10.475 15.235 9.995 14.765 9.995 14.175V7.70499C9.995 7.12499 10.465 6.64499 11.055 6.64499ZM14.625 2.685H18.705V6.64499H14.625V2.685ZM9.625 0.375H23.705C24.345 0.375 24.855 0.894973 24.855 1.53497C24.855 2.17497 24.335 2.69498 23.705 2.69498H9.625C8.985 2.69498 8.47498 2.17497 8.47498 1.53497C8.47498 0.894973 8.99498 0.375 9.63498 0.375H9.625ZM3.47498 8.29498H10.005V13.575H3.47498V8.29498ZM25.445 8.29498H23.335V13.575H25.445C26.905 13.575 28.085 14.755 28.085 16.215V19.405H33.365V16.215C33.365 11.845 29.815 8.30498 25.445 8.29498ZM33.365 31.285C33.365 32.745 32.185 33.925 30.725 33.925C29.265 33.925 28.085 32.745 28.085 31.285C28.085 29.825 30.725 26.005 30.725 26.005C30.725 26.005 33.365 29.825 33.365 31.285Z" stroke="black" stroke-width="0.75" stroke-linecap="round" stroke-linejoin="round"/>
</svg>
