<?xml version="1.0" encoding="UTF-8"?>
<svg id="Layer_1" xmlns="http://www.w3.org/2000/svg" version="1.1" viewBox="0 0 39 30">
  <!-- Generator: Adobe Illustrator 30.2.1, SVG Export Plug-In . SVG Version: 2.1.1 Build 1)  -->
  <defs>
    <style>
      .st0 {
        fill: none;
      }

      .st0, .st1 {
        stroke: #000;
        stroke-linecap: round;
        stroke-linejoin: round;
        stroke-width: .8px;
      }

      .st1 {
        fill: #e4ff17;
      }
    </style>
  </defs>
  <line class="st0" x1="16.4" y1="18.9" x2="16.2" y2="20.4"/>
  <line class="st0" x1="17.7" y1="18.8" x2="18.2" y2="20.2"/>
  <path class="st0" d="M34.4,19.9h-5.3l3.2-4.2-1.1-.9-4.5,5.4c-.1.1-.2.2-.4.2H10.1S1.6,25.9,1.6,25.9v3l7.9-5.8h5.9l3.7,3.7,1.5-1.1.6-.5-2.1-2.1h15.3v-3.2Z"/>
  <path class="st0" d="M15.5,28.4c1.1,0,2-.9,2-2v-1.2h-1.2c-1.1,0-2,.9-2,2v1.2h1.2Z"/>
  <path class="st0" d="M.4,22.6c0,1.1.9,2,2,2h1.2v-1.2c0-1.1-.9-2-2-2H.4v1.2Z"/>
  <path class="st0" d="M24.3,24.1c0,1.5,1.2,2.6,2.6,2.6h1.1v-1.1c0-1.5-1.2-2.6-2.6-2.6h-1.1v1.1Z"/>
  <path class="st1" d="M20.4.4c-2.2,0-4,1.8-4,4v3.4L2.2,16.2l.2.2c1.4,1.2,3.5,1.3,5,.3,2.8,1.4,5.8,2.1,9,2.1h0c4.4,0,7.9-3.5,7.9-7.9v-6.6c0-2.2-1.8-4-4-4ZM16.4,10.8c0,1.4-.7,2.8-1.9,3.6-.8.5-1.7.8-2.6.8s-.9,0-1.4-.2l-2.2-.7,8.1-4.8v1.3Z"/>
  <polygon class="st0" points="37.9 5.4 24.3 3.5 24.3 7.8 37.9 5.4"/>
</svg>