<?xml version="1.0" encoding="UTF-8"?>
<svg id="Layer_1" xmlns="http://www.w3.org/2000/svg" version="1.1" viewBox="0 0 44 24">
  <!-- Generator: Adobe Illustrator 30.2.1, SVG Export Plug-In . SVG Version: 2.1.1 Build 1)  -->
  <defs>
    <style>
      .st0 {
        fill: none;
      }

      .st0, .st1 {
        stroke: #000;
        stroke-linecap: round;
        stroke-linejoin: round;
        stroke-width: .8px;
      }

      .st1 {
        fill: #cb834e;
      }
    </style>
  </defs>
  <path class="st0" d="M5.2,6.4c0,0-.2-.2-.2-.3-.6-.7-.9-1.4-.9-2.4s.3-1.7.9-2.4c.6-.7,1.3-1,2.2-1h.2l13.3,4.2,14.9,4.9"/>
  <polyline class="st0" points="21.3 12.1 34.3 16.8 9.6 8"/>
  <line class="st0" x1="5.4" y1="6.6" x2="9.4" y2="7.9"/>
  <line class="st0" x1="11.3" y1="6" x2="12.3" y2="6.3"/>
  <line class="st0" x1="9.3" y1="5.2" x2="10.3" y2="5.7"/>
  <line class="st0" x1="7.3" y1="4.5" x2="8.3" y2="4.9"/>
  <line class="st0" x1="29.6" y1="10" x2="30.6" y2="10.4"/>
  <line class="st0" x1="27.6" y1="9.3" x2="28.6" y2="9.7"/>
  <line class="st0" x1="25.6" y1="8.7" x2="26.7" y2="9"/>
  <path class="st0" d="M1.5,12.6c0,0-.2-.2-.2-.3-.6-.7-.9-1.4-.9-2.4s.3-1.7.9-2.4c.6-.7,1.3-1,2.2-1h.2l13.3,4.2,14.9,4.9"/>
  <polyline class="st0" points="17.5 18.3 30.6 22.9 5.8 14.2"/>
  <line class="st0" x1="1.6" y1="12.7" x2="5.7" y2="14.1"/>
  <line class="st0" x1="7.6" y1="12.1" x2="8.5" y2="12.4"/>
  <line class="st0" x1="5.5" y1="11.4" x2="6.6" y2="11.8"/>
  <line class="st0" x1="3.6" y1="10.7" x2="4.6" y2="11.1"/>
  <line class="st0" x1="25.9" y1="16.2" x2="26.8" y2="16.6"/>
  <line class="st0" x1="23.8" y1="15.5" x2="24.9" y2="15.9"/>
  <line class="st0" x1="21.9" y1="14.8" x2="22.9" y2="15.2"/>
  <line class="st0" x1="15.5" y1="12.1" x2="16.5" y2="12.4"/>
  <line class="st0" x1="13.5" y1="11.4" x2="14.5" y2="11.8"/>
  <line class="st0" x1="11.5" y1="10.7" x2="12.5" y2="11.1"/>
  <line class="st0" x1="33.8" y1="16.2" x2="34.8" y2="16.6"/>
  <line class="st0" x1="31.8" y1="15.5" x2="32.8" y2="15.9"/>
  <circle class="st1" cx="35.4" cy="13.2" r="3.7"/>
  <path class="st1" d="M35.4,19.3c0,2.1-1.7,3.7-3.7,3.7s-3.7-1.7-3.7-3.7,1.7-3.7,3.7-3.7,3.7,1.7,3.7,3.7Z"/>
  <path class="st1" d="M43.3,19.3c0,2.1-1.7,3.7-3.7,3.7s-3.7-1.7-3.7-3.7,1.7-3.7,3.7-3.7,3.7,1.7,3.7,3.7Z"/>
  <path class="st0" d="M33.3,18.4c.3.3.4.6.4,1.1s-.1.8-.4,1.1c-.2.2-.5.4-.8.4"/>
  <path class="st0" d="M37,12.3c.3.3.4.6.4,1.1s-.1.8-.4,1.1c-.2.2-.5.4-.8.4"/>
  <path class="st0" d="M41.2,18.4c.3.3.4.6.4,1.1s-.1.8-.4,1.1c-.2.2-.5.4-.8.4"/>
</svg>