<?xml version="1.0" encoding="UTF-8"?>
<svg id="Layer_1" data-name="Layer 1" xmlns="http://www.w3.org/2000/svg" width="1024" height="1024" viewBox="0 0 1024 1024">
  <g>
    <g>
      <rect x="485.879" y="131.373" width="52.241" height="284.101" transform="translate(238.577 785.424) rotate(-90)"/>
      <polygon points="571.264 530.213 448.473 468.333 448.714 326.556 371.623 326.556 371.382 776.697 448.473 776.697 449.673 548.942 576.96 613.306 576.96 776.697 654.05 776.697 652.517 571.704 571.264 530.213 571.264 530.213"/>
      <polygon points="547.089 776.697 479.702 776.555 479.235 595.843 546.724 630.192 547.089 776.697"/>
    </g>
    <polygon points="479.129 294.926 546.515 295.069 547.194 487.352 479.705 453.003 479.129 294.926"/>
  </g>
  <polygon points="714.566 161.144 917.133 512 714.567 862.855 309.434 862.856 106.867 512 309.433 161.145 714.566 161.144" fill="none" stroke="#000" stroke-miterlimit="10" stroke-width="20"/>
</svg>