<?xml version="1.0" encoding="UTF-8"?>
<svg id="Layer_1" xmlns="http://www.w3.org/2000/svg" version="1.1" viewBox="0 0 37 37">
 <!-- Generator: Adobe Illustrator 30.2.1, SVG Export Plug-In . SVG Version: 2.1.1 Build 1) -->
 <path fill="none" stroke="#000" stroke-linecap="round" stroke-linejoin="round" stroke-width=".8px" d="M2.7,26.2c0,0-.2-.2-.2-.3-.6-.7-.9-1.4-.9-2.4s.3-1.7.9-2.4c.6-.7,1.3-1,2.2-1h.2l13.3,4.2"/>
 <path fill="none" stroke="#000" stroke-linecap="round" stroke-linejoin="round" stroke-width=".8px" d="M18.1,24.3l12.8-4.1h.3c1,0,1.8.4,2.5,1.1.7.8,1,1.7,1,2.7s-.4,2-1,2.7c-.2.2-.5.5-.7.6l-2.8.9"/>
 <line fill="none" stroke="#000" stroke-linecap="round" stroke-linejoin="round" stroke-width=".8px" x1="18.1" y1="24.3" x2="33.1" y2="29.2"/>
 <polyline fill="none" stroke="#000" stroke-linecap="round" stroke-linejoin="round" stroke-width=".8px" points="5.9 35.9 18.7 31.9 31.7 36.5 7 27.7 3.5 28.9"/>
 <line fill="none" stroke="#000" stroke-linecap="round" stroke-linejoin="round" stroke-width=".8px" x1="2.8" y1="26.3" x2="6.9" y2="27.7"/>
 <path fill="none" stroke="#000" stroke-linecap="round" stroke-linejoin="round" stroke-width=".8px" d="M4.8,34.5c-.1,0-1.3.3-1.9-.4-.4-.4-.5-.8-.5-1.3s.2-1,.5-1.4c.3-.3.7-.5,1.1-.5"/>
 <path fill="none" stroke="#000" stroke-linecap="round" stroke-linejoin="round" stroke-width=".8px" d="M34.5,32c.3.3.4.6.4,1.1s-.1.8-.4,1.1-.5.4-.8.4"/>
 <line fill="none" stroke="#000" stroke-linecap="round" stroke-linejoin="round" stroke-width=".8px" x1="8.7" y1="25.7" x2="9.7" y2="26"/>
 <line fill="none" stroke="#000" stroke-linecap="round" stroke-linejoin="round" stroke-width=".8px" x1="6.7" y1="25" x2="7.7" y2="25.4"/>
 <line fill="none" stroke="#000" stroke-linecap="round" stroke-linejoin="round" stroke-width=".8px" x1="4.8" y1="24.3" x2="5.7" y2="24.6"/>
 <line fill="none" stroke="#000" stroke-linecap="round" stroke-linejoin="round" stroke-width=".8px" x1="27" y1="29.8" x2="28" y2="30.1"/>
 <line fill="none" stroke="#000" stroke-linecap="round" stroke-linejoin="round" stroke-width=".8px" x1="25" y1="29.1" x2="26" y2="29.5"/>
 <line fill="none" stroke="#000" stroke-linecap="round" stroke-linejoin="round" stroke-width=".8px" x1="23.1" y1="28.4" x2="24.1" y2="28.8"/>
 <path stroke="#000" stroke-linecap="round" stroke-linejoin="round" stroke-width=".8px" fill="#cb834e" d="M24.2,10.7c-2.6-4.3-6.1-2.6-4.9-10.1.2-1.1-2.7,1.9-3.5,2.6-2.5,2.3-4.1,5-4.9,8-1.4,5.4,2.9,10,4.6,9.9,1,0-1.9-2.6.4-5.2.4-.5,1.3,2.9,1.7,2.9.4,0,.4-6.4.8-5.6,2.2,4.1,1.3,7.4,1.9,7.6.1,0,7.6-3.8,3.8-10.2Z"/>
 <path fill="none" stroke="#000" stroke-linecap="round" stroke-linejoin="round" stroke-width=".8px" d="M7.8,32.6c0,2.1-1.7,3.7-3.7,3.7s-3.7-1.7-3.7-3.7,1.7-3.7,3.7-3.7,3.7,1.7,3.7,3.7Z"/>
 <circle fill="none" stroke="#000" stroke-linecap="round" stroke-linejoin="round" stroke-width=".8px" cx="32.8" cy="32.9" r="3.7"/>
</svg>