<svg width="34" height="33" viewBox="0 0 34 33" fill="none" xmlns="http://www.w3.org/2000/svg">
<path d="M0.39001 20.645C0.82001 22.435 1.47 26.115 1.47 31.775H4.43002C4.43002 31.775 3.94 23.995 0.850002 20.205C0.630002 19.935 0.30001 20.245 0.39001 20.645Z" fill="#38FF45"/>
<path d="M24.04 31.775L24.2 27.105L23.87 21.355C21.49 25.375 21.09 31.775 21.09 31.775H24.05H24.04ZM11.06 31.775L11.33 27.105L11.97 16.045C12.03 14.955 12.2 13.875 12.47 12.825L12.75 11.725L12.27 9.855L11.83 10.485C10.53 12.355 9.67003 14.765 9.37003 17.375L9.24002 18.545L10.33 31.795H11.05L11.06 31.775Z" fill="#38FF45"/>
<path d="M7.75 31.775H10.34L9.25 18.525L8.03 0.735C7.99 0.255 7.50002 0.255 7.46002 0.735L6.24002 18.525L7.74002 31.775H7.75Z" fill="#38FF45"/>
<path d="M7.75 31.775L6.25 17.455L6.12003 16.195C5.82003 13.375 4.96001 10.765 3.66001 8.745L2.62003 7.125C2.40003 6.785 2.04003 7.145 2.15003 7.595L3.03 11.285C3.3 12.425 3.47 13.595 3.53 14.765L4.44 31.775H7.76001L7.75 31.775ZM21.08 31.775L21.99 16.045C22.05 14.955 22.22 13.875 22.49 12.825L22.77 11.725L22.29 9.855L21.85 10.485C20.55 12.355 19.69 14.765 19.39 17.375L19.26 18.545L20.35 31.795H21.07L21.08 31.775Z" fill="#38FF45"/>
<path d="M20.36 31.775L19.27 18.525L18.05 0.735C18.01 0.255 17.52 0.255 17.48 0.735L16.26 18.525L17.76 31.775H20.36Z" fill="#38FF45"/>
<path d="M11.76 8.865C12.1 10.115 12.31 11.425 12.39 12.765L13.55 31.785H17.77L15.86 15.765L15.69 14.355C15.31 11.205 14.22 8.285 12.57 6.025L12.02 5.265L10.67 3.405C10.53 3.215 10.3 3.415 10.37 3.665L11.77 8.845L11.76 8.865ZM31.1 31.775L32.01 16.045C32.07 14.955 32.24 13.875 32.51 12.825L33.39 9.415C33.5 9.005 33.14 8.675 32.92 8.985L31.88 10.485C30.58 12.355 29.72 14.765 29.42 17.375L29.29 18.545L30.38 31.795H31.1V31.775Z" fill="#38FF45"/>
<path d="M30.38 31.775L29.29 18.525L28.07 0.735C28.03 0.255 27.54 0.255 27.5 0.735L26.28 18.525L27.78 31.775H30.38Z" fill="#38FF45"/>
<path d="M23.06 9.965C23.33 11.155 23.49 12.405 23.56 13.675L24.47 31.795H27.79L26.29 16.545L26.16 15.205C25.86 12.205 25 9.425 23.7 7.275L23.26 6.555L22.78 5.755L22.2 4.785C22.09 4.605 21.91 4.795 21.97 5.035L22.31 6.545L22.79 8.705L23.07 9.975L23.06 9.965Z" fill="#38FF45"/>
<path d="M11.33 27.105L11.49 31.775H14.45H11.06M11.33 27.105L11.06 31.775M11.33 27.105L11.97 16.045C12.03 14.955 12.2 13.875 12.47 12.825L12.75 11.725L12.27 9.855L11.83 10.485C10.53 12.355 9.67003 14.765 9.37003 17.375L9.24002 18.545L10.33 31.795H11.05L11.06 31.775M24.04 31.775H21.08M24.04 31.775L24.2 27.105M24.04 31.775H24.05H21.09C21.09 31.775 21.49 25.375 23.87 21.355L24.2 27.105M21.08 31.775H24.47L24.2 27.105M21.08 31.775L21.99 16.045C22.05 14.955 22.22 13.875 22.49 12.825L22.77 11.725L22.29 9.855L21.85 10.485C20.55 12.355 19.69 14.765 19.39 17.375L19.26 18.545L20.35 31.795H21.07L21.08 31.775ZM7.75 31.775H10.34L9.25 18.525L8.03 0.735C7.99 0.255 7.50002 0.255 7.46002 0.735L6.24002 18.525L7.74002 31.775H7.75ZM7.75 31.775L6.25 17.455L6.12003 16.195C5.82003 13.375 4.96001 10.765 3.66001 8.745L2.62003 7.125C2.40003 6.785 2.04003 7.145 2.15003 7.595L3.03 11.285C3.3 12.425 3.47 13.595 3.53 14.765L4.44 31.775H7.76001L7.75 31.775ZM0.39001 20.645C0.82001 22.435 1.47 26.115 1.47 31.775H4.43002C4.43002 31.775 3.94 23.995 0.850002 20.205C0.630002 19.935 0.30001 20.245 0.39001 20.645ZM20.36 31.775L19.27 18.525L18.05 0.735C18.01 0.255 17.52 0.255 17.48 0.735L16.26 18.525L17.76 31.775H20.36ZM11.76 8.865C12.1 10.115 12.31 11.425 12.39 12.765L13.55 31.785H17.77L15.86 15.765L15.69 14.355C15.31 11.205 14.22 8.285 12.57 6.025L12.02 5.265L10.67 3.405C10.53 3.215 10.3 3.415 10.37 3.665L11.77 8.845L11.76 8.865ZM31.1 31.775L32.01 16.045C32.07 14.955 32.24 13.875 32.51 12.825L33.39 9.415C33.5 9.005 33.14 8.675 32.92 8.985L31.88 10.485C30.58 12.355 29.72 14.765 29.42 17.375L29.29 18.545L30.38 31.795H31.1V31.775ZM30.38 31.775L29.29 18.525L28.07 0.735C28.03 0.255 27.54 0.255 27.5 0.735L26.28 18.525L27.78 31.775H30.38ZM23.06 9.965C23.33 11.155 23.49 12.405 23.56 13.675L24.47 31.795H27.79L26.29 16.545L26.16 15.205C25.86 12.205 25 9.425 23.7 7.275L23.26 6.555L22.78 5.755L22.2 4.785C22.09 4.605 21.91 4.795 21.97 5.035L22.31 6.545L22.79 8.705L23.07 9.975L23.06 9.965Z" stroke="black" stroke-width="0.75" stroke-linecap="round" stroke-linejoin="round"/>
</svg>
