<?xml version="1.0" encoding="UTF-8"?>
<svg id="Layer_1" xmlns="http://www.w3.org/2000/svg" version="1.1" viewBox="0 0 36 35">
 <!-- Generator: Adobe Illustrator 30.2.1, SVG Export Plug-In . SVG Version: 2.1.1 Build 1) -->
 <path fill="#38ff45" stroke="#000" stroke-linecap="round" stroke-linejoin="round" stroke-width=".8px" d="M14.3,33.2s0,0,0,0c-1.7.7-3.6.9-5.5.5-2-.4-3.8-1.3-5.3-2.7-.2-.1-.2-.3-.3-.5,0,0,0,0,0,0,0-.2.2-.4.4-.5l.4-.2-3.4-4.2c-.1-.2-.2-.4-.1-.5s.2-.4.4-.4l1-.5-1.1-5.6c0-.2.1-.5.4-.7l1.2-.5,1.7-7.1c0-.2.2-.4.4-.4.2-.1.4,0,.5,0l6.4,3.5,1.2-.5c.3-.1.6,0,.8.2.5.4,1.5,1,1.8,2s.4,1.7.7,2.3c.6,3.2,3.8,4.5,5,6,0,1.6-.6,7.5-6.4,9.7Z"/>
 <path fill="#38ff45" stroke="#000" stroke-linecap="round" stroke-linejoin="round" stroke-width=".8px" d="M15.1,32.9c0,0,.2,0,.3-.1"/>
 <line fill="#38ff45" stroke="#000" stroke-linecap="round" stroke-linejoin="round" stroke-width=".8px" x1="15.1" y1="32.9" x2="15.3" y2="32.8"/>
 <path fill="#38ff45" stroke="#000" stroke-linecap="round" stroke-linejoin="round" stroke-width=".8px" d="M15.1,32.9c0,0-.2,0-.3.1"/>
 <line fill="#38ff45" stroke="#000" stroke-linecap="round" stroke-linejoin="round" stroke-width=".8px" x1="15.1" y1="32.9" x2="14.8" y2="33"/>
 <path fill="#38ff45" stroke="#000" stroke-linecap="round" stroke-linejoin="round" stroke-width=".8px" d="M14.5,33.1c-.1,0-.2,0-.3.1,0,0,.1,0,.2,0"/>
 <line fill="#38ff45" stroke="#000" stroke-linecap="round" stroke-linejoin="round" stroke-width=".8px" x1="14.5" y1="33.1" x2="14.3" y2="33.2"/>
 <path fill="#38ff45" stroke="#000" stroke-linecap="round" stroke-linejoin="round" stroke-width=".8px" d="M14.5,33.1c0,0,.2,0,.3-.1"/>
 <line fill="#38ff45" stroke="#000" stroke-linecap="round" stroke-linejoin="round" stroke-width=".8px" x1="14.5" y1="33.1" x2="14.8" y2="33"/>
 <path fill="#38ff45" stroke="#000" stroke-linecap="round" stroke-linejoin="round" stroke-width=".8px" d="M14.3,33.2c.2,0,.3-.1.4-.2"/>
 <path fill="#38ff45" stroke="#000" stroke-linecap="round" stroke-linejoin="round" stroke-width=".8px" d="M21,23.2s0,0,0,0"/>
 <line fill="#38ff45" stroke="#000" stroke-linecap="round" stroke-linejoin="round" stroke-width=".8px" x1="21" y1="23.2" x2="21" y2="23.2"/>
 <path fill="#38ff45" stroke="#000" stroke-linecap="round" stroke-linejoin="round" stroke-width=".8px" d="M21,23.2c0,0-.2,0-.2-.1"/>
 <path fill="#38ff45" stroke="#000" stroke-linecap="round" stroke-linejoin="round" stroke-width=".8px" d="M21,23.2c0,0,.1,0,.2.1,3.5,1.5,6.9.4,7.3.3,1.3-.4,2.5-1.1,3.5-2,.2-.1.2-.4.2-.5,0-.2-.2-.4-.4-.5l-.4-.2,3.6-4c.1-.1.2-.4.1-.5s-.2-.4-.4-.4l-1-.5,1.3-5.5c0-.3,0-.6-.3-.7l-1.1-.6-1.4-7.2c0-.2-.2-.4-.4-.4,0-.1-.2-.1-.4,0l-6.6,3.2-1.1-.6c-.2-.1-.6,0-.8.2l-3.7,4.4-1-.5c-.2,0-.4,0-.5,0-.2,0-.3.2-.4.4l-1.1,5.3-.4-.2c-.2-.1-.4,0-.6,0-.2.1-.3.3-.3.5,0,1-.2,1.8,0,2.5.6,1.7.9,2.8,2,4.2,1.3,1.7,2.8,2.8,3.9,3.4Z"/>
 <path fill="#38ff45" stroke="#000" stroke-linecap="round" stroke-linejoin="round" stroke-width=".8px" d="M15.2,15.6c.2,1.2.6,2.3,1.2,3.3.8,1.4,1.8,2.5,3.1,3.4.2.1.4.3.6.4,0,0,.1,0,.2,0,0,0,.2.1.3.2s.2,0,.3.1c0,0,0,0,0,0"/>
 <line fill="#38ff45" stroke="#000" stroke-linecap="round" stroke-linejoin="round" stroke-width=".8px" x1="21.3" y1="14" x2="22.6" y2="18"/>
 <polyline fill="#38ff45" stroke="#000" stroke-linecap="round" stroke-linejoin="round" stroke-width=".8px" points="25.5 12.3 24.2 8.3 25.7 12.9"/>
 <line fill="#38ff45" stroke="#000" stroke-linecap="round" stroke-linejoin="round" stroke-width=".8px" x1="30.5" y1="11.5" x2="25.7" y2="12.8"/>
 <line fill="#38ff45" stroke="#000" stroke-linecap="round" stroke-linejoin="round" stroke-width=".8px" x1="27.6" y1="17.3" x2="22.8" y2="18.5"/>
 <line fill="#38ff45" stroke="#000" stroke-linecap="round" stroke-linejoin="round" stroke-width=".8px" x1="22.7" y1="18.5" x2="21.2" y2="14.1"/>
 <polyline fill="#38ff45" stroke="#000" stroke-linecap="round" stroke-linejoin="round" stroke-width=".8px" points="12 28.4 8.1 26.9 12.5 28.6"/>
 <line fill="#38ff45" stroke="#000" stroke-linecap="round" stroke-linejoin="round" stroke-width=".8px" x1="5.5" y1="21.1" x2="9.4" y2="22.6"/>
 <line fill="#38ff45" stroke="#000" stroke-linecap="round" stroke-linejoin="round" stroke-width=".8px" x1="10" y1="22.8" x2="5.5" y2="21.1"/>
 <line fill="#38ff45" stroke="#000" stroke-linecap="round" stroke-linejoin="round" stroke-width=".8px" x1="12" y1="18.1" x2="10" y2="22.7"/>
 <line fill="#38ff45" stroke="#000" stroke-linecap="round" stroke-linejoin="round" stroke-width=".8px" x1="14.6" y1="24" x2="12.5" y2="28.5"/>
 <line fill="#38ff45" stroke="#000" stroke-linecap="round" stroke-linejoin="round" stroke-width=".8px" x1="14.5" y1="33.1" x2="7.3" y2="16.7"/>
 <polyline fill="#38ff45" stroke="#000" stroke-linecap="round" stroke-linejoin="round" stroke-width=".8px" points="20.4 22.9 20.5 22.8 20.5 22.8 28.7 7"/>
</svg>