<svg width="38" height="36" viewBox="0 0 38 36" fill="none" xmlns="http://www.w3.org/2000/svg">
<path d="M21.0657 17.1825C22.6657 16.4425 24.5257 16.4725 26.0957 17.2725C27.5657 18.0225 28.6357 19.3625 29.0557 20.9525C32.5657 20.3125 35.5157 17.8025 36.6657 14.3325C35.5257 15.0725 34.1757 15.4425 32.8157 15.4025C28.7157 15.3525 25.4257 11.9925 25.4757 7.89251C25.4957 4.73251 27.4357 1.90252 30.3657 0.742515C29.3457 0.462515 28.2757 0.342499 27.2157 0.382499C21.5557 0.442499 17.0157 5.08253 17.0757 10.7525C17.0757 11.5025 17.1457 12.2325 17.2957 12.9425C18.9857 13.7925 20.3657 15.2625 21.0557 17.1825H21.0657Z" fill="white"/>
<path d="M21.0657 17.1825C22.6657 16.4425 24.5257 16.4725 26.0957 17.2725C27.5657 18.0225 28.6357 19.3625 29.0557 20.9525C32.5657 20.3125 35.5157 17.8025 36.6657 14.3325C35.5257 15.0725 34.1757 15.4425 32.8157 15.4025C28.7157 15.3525 25.4257 11.9925 25.4757 7.89251C25.4957 4.73251 27.4357 1.90252 30.3657 0.742515C29.3457 0.462515 28.2757 0.342499 27.2157 0.382499C21.5557 0.442499 17.0157 5.08253 17.0757 10.7525C17.0757 11.5025 17.1457 12.2325 17.2957 12.9425C18.9857 13.7925 20.3657 15.2625 21.0557 17.1825H21.0657Z" stroke="black" stroke-width="0.75" stroke-linecap="round" stroke-linejoin="round"/>
<path d="M30.5457 21.1525C30.0757 21.1525 29.6057 21.2025 29.1457 21.2925C29.1257 21.1825 29.0857 21.0725 29.0557 20.9625C28.6357 19.3725 27.5657 18.0325 26.0957 17.2825C24.5157 16.4825 22.6657 16.4525 21.0657 17.1925C20.3657 15.2725 18.9857 13.8125 17.3057 12.9525C15.4757 12.0225 13.2857 11.8225 11.2057 12.5825C7.20567 14.0325 5.14567 18.4525 6.59567 22.4525C3.09567 22.5625 0.325666 25.4625 0.375666 28.9625C0.425666 32.4625 3.27567 35.2825 6.78567 35.2825H30.5457C34.4457 35.2825 37.6057 32.1225 37.6057 28.2225C37.6057 24.3225 34.4457 21.1625 30.5457 21.1625V21.1525Z" stroke="black" stroke-width="0.75" stroke-linecap="round" stroke-linejoin="round"/>
</svg>
