<svg width="37" height="36" viewBox="0 0 37 36" fill="none" xmlns="http://www.w3.org/2000/svg">
<path d="M12.8304 24.9995C12.8304 26.1895 11.8603 27.1595 10.6703 27.1595C9.48035 27.1595 8.51035 26.1895 8.51035 24.9995C8.51035 23.8095 9.48035 22.8395 10.6703 22.8395C11.2403 22.8395 11.7903 23.0695 12.2003 23.4695C12.6103 23.8795 12.8304 24.4195 12.8304 24.9995Z" fill="white"/>
<path d="M19.1303 18.6595C19.1303 19.8495 18.1604 20.8195 16.9704 20.8195C15.7804 20.8195 14.8104 19.8495 14.8104 18.6595C14.8104 17.4695 15.7804 16.4995 16.9704 16.4995C17.5404 16.4995 18.0904 16.7295 18.5004 17.1295C18.9104 17.5395 19.1303 18.0795 19.1303 18.6595Z" fill="white"/>
<path d="M20.1303 28.0995C20.1303 29.2895 19.1604 30.2595 17.9704 30.2595C16.7804 30.2595 15.8104 29.2895 15.8104 28.0995C15.8104 26.9095 16.7804 25.9395 17.9704 25.9395C18.5404 25.9395 19.0904 26.1695 19.5004 26.5695C19.9104 26.9795 20.1303 27.5195 20.1303 28.0995Z" fill="white"/>
<path d="M33.1904 28.2795C33.1904 29.4695 32.2204 30.4395 31.0304 30.4395C29.8404 30.4395 28.8704 29.4695 28.8704 28.2795C28.8704 27.0895 29.8404 26.1195 31.0304 26.1195C31.6004 26.1195 32.1504 26.3495 32.5604 26.7495C32.9704 27.1595 33.1904 27.6995 33.1904 28.2795Z" fill="white"/>
<path d="M27.6303 33.1595C27.6303 34.3495 26.6604 35.3195 25.4704 35.3195C24.2804 35.3195 23.3104 34.3495 23.3104 33.1595C23.3104 31.9695 24.2804 30.9995 25.4704 30.9995C26.0404 30.9995 26.5904 31.2295 27.0004 31.6295C27.4104 32.0395 27.6303 32.5795 27.6303 33.1595Z" fill="white"/>
<path d="M14.3904 33.2695C14.3904 34.4595 13.4203 35.4295 12.2303 35.4295C11.0403 35.4295 10.0703 34.4595 10.0703 33.2695C10.0703 32.0795 11.0403 31.1095 12.2303 31.1095C12.8003 31.1095 13.3503 31.3395 13.7603 31.7395C14.1703 32.1495 14.3904 32.6895 14.3904 33.2695Z" fill="white"/>
<path d="M6.53036 31.3495C6.53036 32.5395 5.57036 33.5095 4.37036 33.5095C3.18036 33.5095 2.21036 32.5495 2.21036 31.3495C2.21036 30.1595 3.17035 29.1895 4.36035 29.1795C4.93035 29.1795 5.48035 29.3995 5.89035 29.8095C6.30035 30.2195 6.53036 30.7695 6.53036 31.3395V31.3495Z" fill="white"/>
<path d="M25.8803 22.9795C25.8803 24.1695 24.9104 25.1395 23.7204 25.1395C22.5304 25.1395 21.5604 24.1695 21.5604 22.9795C21.5604 21.7895 22.5304 20.8195 23.7204 20.8195C24.2904 20.8195 24.8404 21.0495 25.2504 21.4495C25.6604 21.8595 25.8803 22.3995 25.8803 22.9795Z" fill="white"/>
<path d="M29.2303 22.5795C32.9703 22.5795 36.0004 19.5395 36.0004 15.7995C36.0004 14.3095 35.5003 12.8595 34.6003 11.6795C33.0303 9.63949 30.4304 8.65948 27.9004 9.16948C27.3004 6.16948 24.3803 4.22948 21.3903 4.82948C20.9603 4.91948 20.5504 5.04949 20.1504 5.23949C18.7604 1.40949 14.5204 -0.570527 10.6904 0.819473C6.86037 2.20947 4.88035 6.44949 6.27035 10.2795C2.87035 10.4195 0.24034 13.2895 0.38034 16.6895C0.52034 19.9595 3.19036 22.5395 6.46036 22.5795M12.8304 24.9995C12.8304 26.1895 11.8603 27.1595 10.6703 27.1595C9.48035 27.1595 8.51035 26.1895 8.51035 24.9995C8.51035 23.8095 9.48035 22.8395 10.6703 22.8395C11.2403 22.8395 11.7903 23.0695 12.2003 23.4695C12.6103 23.8795 12.8304 24.4195 12.8304 24.9995ZM19.1303 18.6595C19.1303 19.8495 18.1604 20.8195 16.9704 20.8195C15.7804 20.8195 14.8104 19.8495 14.8104 18.6595C14.8104 17.4695 15.7804 16.4995 16.9704 16.4995C17.5404 16.4995 18.0904 16.7295 18.5004 17.1295C18.9104 17.5395 19.1303 18.0795 19.1303 18.6595ZM20.1303 28.0995C20.1303 29.2895 19.1604 30.2595 17.9704 30.2595C16.7804 30.2595 15.8104 29.2895 15.8104 28.0995C15.8104 26.9095 16.7804 25.9395 17.9704 25.9395C18.5404 25.9395 19.0904 26.1695 19.5004 26.5695C19.9104 26.9795 20.1303 27.5195 20.1303 28.0995ZM33.1904 28.2795C33.1904 29.4695 32.2204 30.4395 31.0304 30.4395C29.8404 30.4395 28.8704 29.4695 28.8704 28.2795C28.8704 27.0895 29.8404 26.1195 31.0304 26.1195C31.6004 26.1195 32.1504 26.3495 32.5604 26.7495C32.9704 27.1595 33.1904 27.6995 33.1904 28.2795ZM27.6303 33.1595C27.6303 34.3495 26.6604 35.3195 25.4704 35.3195C24.2804 35.3195 23.3104 34.3495 23.3104 33.1595C23.3104 31.9695 24.2804 30.9995 25.4704 30.9995C26.0404 30.9995 26.5904 31.2295 27.0004 31.6295C27.4104 32.0395 27.6303 32.5795 27.6303 33.1595ZM14.3904 33.2695C14.3904 34.4595 13.4203 35.4295 12.2303 35.4295C11.0403 35.4295 10.0703 34.4595 10.0703 33.2695C10.0703 32.0795 11.0403 31.1095 12.2303 31.1095C12.8003 31.1095 13.3503 31.3395 13.7603 31.7395C14.1703 32.1495 14.3904 32.6895 14.3904 33.2695ZM6.53036 31.3495C6.53036 32.5395 5.57036 33.5095 4.37036 33.5095C3.18036 33.5095 2.21036 32.5495 2.21036 31.3495C2.21036 30.1595 3.17035 29.1895 4.36035 29.1795C4.93035 29.1795 5.48035 29.3995 5.89035 29.8095C6.30035 30.2195 6.53036 30.7695 6.53036 31.3395V31.3495ZM25.8803 22.9795C25.8803 24.1695 24.9104 25.1395 23.7204 25.1395C22.5304 25.1395 21.5604 24.1695 21.5604 22.9795C21.5604 21.7895 22.5304 20.8195 23.7204 20.8195C24.2904 20.8195 24.8404 21.0495 25.2504 21.4495C25.6604 21.8595 25.8803 22.3995 25.8803 22.9795Z" stroke="black" stroke-width="0.75" stroke-linecap="round" stroke-linejoin="round"/>
</svg>
