<?xml version="1.0" encoding="UTF-8"?>
<svg id="Layer_1" xmlns="http://www.w3.org/2000/svg" version="1.1" viewBox="0 0 36 35">
 <!-- Generator: Adobe Illustrator 30.2.1, SVG Export Plug-In . SVG Version: 2.1.1 Build 1) -->
 <path fill="none" stroke="#000" stroke-linecap="round" stroke-linejoin="round" stroke-width=".8px" d="M31.1,30.7c-1.7,0-3.4-.4-4.9-1.1-1.2-.7-2.6-1-4-.9-1.4,0-2.8.3-4,.9-1.5.8-3.2,1.2-4.9,1.1-1.7,0-3.4-.4-4.9-1.1-1.2-.7-2.6-1-4-.9"/>
 <path fill="none" stroke="#000" stroke-linecap="round" stroke-linejoin="round" stroke-width=".8px" d="M31.1,34c-1.7,0-3.4-.3-4.9-1.1-1.2-.7-2.6-1-4-.9-1.4,0-2.8.3-4,.9-1.5.8-3.2,1.2-4.9,1.1-1.7,0-3.4-.3-4.9-1.1-1.2-.7-2.6-1-4-.9"/>
 <path fill="none" stroke="#000" stroke-linecap="round" stroke-linejoin="round" stroke-width=".8px" d="M31.1,27.3c-1.7,0-3.4-.3-4.9-1.1-1.2-.6-2.6-1-4-.9-1.4,0-2.8.3-4,.9-1.5.8-3.2,1.2-4.9,1.1-1.7,0-3.4-.3-4.9-1.1-1.2-.6-2.6-1-4-.9"/>
 <path stroke="#000" stroke-linecap="round" stroke-linejoin="round" stroke-width=".8px" fill="#fff" d="M34.2,11.5c-1.5-2-4.1-3-6.6-2.5-.6-3-3.5-4.9-6.4-4.3-.4,0-.9.2-1.2.4C18.5,1.4,14.3-.6,10.6.8c-1.2.4-2.3,1.2-3.1,2.2-1.7,2-2.2,4.7-1.3,7.2-3.4.1-6,3-5.8,6.3.1,3.2,2.8,5.8,6,5.8h22.5c3.7,0,6.7-3,6.7-6.7,0-1.5-.5-3-1.4-4.1h0s0,0,0,0Z"/>
</svg>