<svg width="33" height="31" viewBox="0 0 33 31" fill="none" xmlns="http://www.w3.org/2000/svg">
<path d="M29.735 20.445C29.735 22.525 28.055 24.205 25.975 24.205C23.895 24.205 22.215 22.525 22.215 20.445H24.255C24.255 21.395 25.025 22.165 25.975 22.175C26.925 22.175 27.695 21.405 27.705 20.455C27.705 19.505 26.935 18.735 25.985 18.725H5.755V16.685H25.985C28.055 16.685 29.735 18.365 29.745 20.445H29.735Z" fill="white"/>
<path d="M0.375 16.685H2.90497V18.725H0.375V16.685Z" fill="white"/>
<path d="M27.205 27.985H29.735V30.025H27.205V27.985Z" fill="white"/>
<path d="M20.565 25.925C20.565 28.005 18.885 29.685 16.805 29.685C14.725 29.685 13.045 28.005 13.045 25.925H15.085C15.085 26.875 15.855 27.645 16.805 27.645C17.755 27.645 18.525 26.875 18.525 25.925C18.525 24.975 17.755 24.205 16.795 24.205H2.77496V22.165H16.795C18.875 22.165 20.555 23.845 20.555 25.925H20.565Z" fill="white"/>
<path d="M18.835 7.895H4.53497V5.855H18.835C19.785 5.855 20.555 5.085 20.555 4.135C20.575 3.185 19.815 2.405 18.865 2.385C17.915 2.365 17.135 3.125 17.115 4.075C17.115 4.095 17.115 4.115 17.115 4.135H15.075C15.075 2.055 16.755 0.375 18.835 0.375C20.915 0.375 22.595 2.055 22.595 4.135C22.595 6.215 20.915 7.895 18.835 7.895Z" fill="white"/>
<path d="M6.375 11.495H9.22498V13.535H6.375V11.495Z" fill="white"/>
<path d="M27.205 4.265H30.055V6.305H27.205V4.265Z" fill="white"/>
<path d="M12.035 11.495H32.535V13.535H12.035V11.495Z" fill="white"/>
<path d="M29.735 20.445C29.735 22.525 28.055 24.205 25.975 24.205C23.895 24.205 22.215 22.525 22.215 20.445H24.255C24.255 21.395 25.025 22.165 25.975 22.175C26.925 22.175 27.695 21.405 27.705 20.455C27.705 19.505 26.935 18.735 25.985 18.725H5.755V16.685H25.985C28.055 16.685 29.735 18.365 29.745 20.445H29.735Z" stroke="black" stroke-width="0.75" stroke-linecap="round" stroke-linejoin="round"/>
<path d="M0.375 16.685H2.90497V18.725H0.375V16.685Z" stroke="black" stroke-width="0.75" stroke-linecap="round" stroke-linejoin="round"/>
<path d="M27.205 27.985H29.735V30.025H27.205V27.985Z" stroke="black" stroke-width="0.75" stroke-linecap="round" stroke-linejoin="round"/>
<path d="M20.565 25.925C20.565 28.005 18.885 29.685 16.805 29.685C14.725 29.685 13.045 28.005 13.045 25.925H15.085C15.085 26.875 15.855 27.645 16.805 27.645C17.755 27.645 18.525 26.875 18.525 25.925C18.525 24.975 17.755 24.205 16.795 24.205H2.77496V22.165H16.795C18.875 22.165 20.555 23.845 20.555 25.925H20.565Z" stroke="black" stroke-width="0.75" stroke-linecap="round" stroke-linejoin="round"/>
<path d="M18.835 7.895H4.53497V5.855H18.835C19.785 5.855 20.555 5.085 20.555 4.135C20.575 3.185 19.815 2.405 18.865 2.385C17.915 2.365 17.135 3.125 17.115 4.075C17.115 4.095 17.115 4.115 17.115 4.135H15.075C15.075 2.055 16.755 0.375 18.835 0.375C20.915 0.375 22.595 2.055 22.595 4.135C22.595 6.215 20.915 7.895 18.835 7.895Z" stroke="black" stroke-width="0.75" stroke-linecap="round" stroke-linejoin="round"/>
<path d="M6.375 11.495H9.22498V13.535H6.375V11.495Z" stroke="black" stroke-width="0.75" stroke-linecap="round" stroke-linejoin="round"/>
<path d="M27.205 4.265H30.055V6.305H27.205V4.265Z" stroke="black" stroke-width="0.75" stroke-linecap="round" stroke-linejoin="round"/>
<path d="M12.035 11.495H32.535V13.535H12.035V11.495Z" stroke="black" stroke-width="0.75" stroke-linecap="round" stroke-linejoin="round"/>
</svg>
