<svg width="37" height="37" viewBox="0 0 37 37" fill="none" xmlns="http://www.w3.org/2000/svg">
<path d="M28.935 13.3022C28.035 11.9222 26.835 8.5022 28.875 7.6022C27.975 7.3622 24.135 9.28221 23.835 10.5422C23.595 10.4822 22.815 5.50221 24.135 4.36221C21.315 4.42221 18.795 8.14221 18.495 9.70221C18.075 9.34221 15.675 3.46221 21.375 1.00221C11.895 -2.29779 9.07503 8.32221 7.87503 11.9822C7.43503 13.4522 5.96503 14.3622 4.45503 14.0822C8.17503 15.6422 11.655 11.0222 15.315 13.6022C16.205 14.1322 17.215 14.4122 18.255 14.4422C20.175 14.5622 22.215 12.6422 24.195 12.8222C26.535 12.7022 28.755 15.1022 31.155 14.2622C30.315 14.2522 29.515 13.9022 28.935 13.3022Z" fill="#17C0FF"/>
<path d="M0.375031 23.0222C2.89503 22.7222 3.25503 25.3622 5.95503 25.0622C9.19503 24.6422 10.335 23.0822 12.195 23.0222C13.875 23.0222 14.235 24.8222 18.135 24.5822C20.535 24.4022 21.435 22.8422 24.015 23.0222C25.815 23.1422 26.955 24.7622 29.955 24.5822C32.175 24.4022 33.735 22.7222 35.835 23.0222M31.155 14.3222C32.655 13.9622 34.275 12.6422 35.895 12.8222M0.495029 12.8222C1.81503 12.7022 3.19503 13.5422 4.45503 14.0822M4.45503 14.0822C5.96503 14.3622 7.43503 13.4522 7.87503 11.9822C9.07503 8.32221 11.895 -2.29779 21.375 1.00221C15.675 3.46221 18.075 9.34221 18.495 9.70221C18.795 8.14221 21.315 4.42221 24.135 4.36221C22.815 5.50221 23.595 10.4822 23.835 10.5422C24.135 9.28221 27.975 7.3622 28.875 7.6022C26.835 8.5022 28.035 11.9222 28.935 13.3022C29.515 13.9022 30.315 14.2522 31.155 14.2622C28.755 15.1022 26.535 12.7022 24.195 12.8222C22.215 12.6422 20.175 14.5622 18.255 14.4422C17.215 14.4122 16.205 14.1322 15.315 13.6022C11.655 11.0222 8.17503 15.6422 4.45503 14.0822ZM0.375031 17.6822C2.89503 17.3822 3.25503 20.0222 5.95503 19.7222C9.19503 19.3022 10.335 17.7422 12.195 17.6822C13.875 17.6822 14.235 19.4822 18.135 19.2422C20.535 19.0622 21.435 17.5022 24.015 17.6822C25.815 17.8022 26.955 19.4222 29.955 19.2422C32.175 19.0622 33.735 17.3822 35.835 17.6822M0.375031 28.3622C2.89503 28.0622 3.25503 30.7022 5.95503 30.4022C9.19503 29.9822 10.335 28.4222 12.195 28.3622C13.875 28.3622 14.235 30.1622 18.135 29.9222C20.535 29.7422 21.435 28.1822 24.015 28.3622C25.815 28.4822 26.955 30.1022 29.955 29.9222C32.175 29.7422 33.735 28.0622 35.835 28.3622M0.375031 33.7022C2.89503 33.4022 3.25503 36.0422 5.95503 35.7422C9.19503 35.3222 10.335 33.7622 12.195 33.7022C13.875 33.7022 14.235 35.5022 18.135 35.2622C20.535 35.0822 21.435 33.5222 24.015 33.7022C25.815 33.8222 26.955 35.4422 29.955 35.2622C32.175 35.0822 33.735 33.4022 35.835 33.7022" stroke="black" stroke-width="0.75" stroke-linecap="round" stroke-linejoin="round"/>
</svg>
